<svg height="512" viewBox="0 0 128 128" width="512" xmlns="http://www.w3.org/2000/svg"><g><path d="m76.67 45.389v-6.509a6.427 6.427 0 0 0 -6.42-6.42h-4.5v-13.46a1.75 1.75 0 0 0 -3.5 0v13.46h-4.5a6.427 6.427 0 0 0 -6.42 6.42v6.509a36.6 36.6 0 0 0 -24.02 34.441 1.751 1.751 0 0 0 1.75 1.75h21.586a13.466 13.466 0 0 0 26.708 0h21.586a1.751 1.751 0 0 0 1.75-1.75 36.6 36.6 0 0 0 -24.02-34.441zm-18.92-9.429h12.5a2.923 2.923 0 0 1 2.92 2.92v5.42a37.167 37.167 0 0 0 -18.34 0v-5.42a2.923 2.923 0 0 1 2.92-2.92zm6.25 53.85a10 10 0 0 1 -9.827-8.23h19.654a10 10 0 0 1 -9.827 8.23zm11.73-11.73h-44.875a33.11 33.11 0 0 1 22.771-29.788 33.553 33.553 0 0 1 20.748 0 33.107 33.107 0 0 1 22.77 29.788z"/><path d="m64 100.335a1.751 1.751 0 0 0 -1.75 1.75v4.6a1.75 1.75 0 0 0 3.5 0v-4.6a1.751 1.751 0 0 0 -1.75-1.75z"/><path d="m42.08 93.3-3 3.49a1.75 1.75 0 1 0 2.657 2.279l2.995-3.489a1.75 1.75 0 0 0 -2.652-2.28z"/><path d="m85.92 93.3a1.75 1.75 0 0 0 -2.656 2.28l3 3.489a1.75 1.75 0 1 0 2.656-2.279z"/></g></svg>