<?xml version="1.0" encoding="iso-8859-1"?>
<!-- Generator: Adobe Illustrator 16.0.0, SVG Export Plug-In . SVG Version: 6.00 Build 0)  -->
<!DOCTYPE svg PUBLIC "-//W3C//DTD SVG 1.1//EN" "http://www.w3.org/Graphics/SVG/1.1/DTD/svg11.dtd">
<svg version="1.1" id="Capa_1" xmlns="http://www.w3.org/2000/svg" xmlns:xlink="http://www.w3.org/1999/xlink" x="0px" y="0px"
	 width="275.816px" height="275.815px" viewBox="0 0 275.816 275.815" style="enable-background:new 0 0 275.816 275.815;"
	 xml:space="preserve">
<g>
	<g>
		<path d="M50.262,257.613c-3.355,1.466-5.706,4.808-5.706,8.7c0,5.236,4.264,9.497,9.5,9.497c5.239,0,9.502-4.261,9.502-9.497
			c0-4.546-3.209-8.336-7.475-9.273l-22.859-26.43v-84.223l80.164-80.173c0.45-0.451,0.698-1.057,0.698-1.687V18.664
			c4.082-1.071,7.113-4.751,7.113-9.164c0-5.241-4.264-9.5-9.502-9.5c-5.236,0-9.5,4.264-9.5,9.5c0,4.413,3.033,8.093,7.11,9.164
			v44.874l-80.16,80.171c-0.448,0.448-0.703,1.055-0.703,1.689v86.107c0,0.569,0.206,1.125,0.583,1.559L50.262,257.613z
			 M54.057,261.59c2.604,0,4.723,2.119,4.723,4.724c0,2.604-2.119,4.718-4.723,4.718s-4.721-2.114-4.721-4.718
			C49.336,263.709,51.457,261.59,54.057,261.59z M106.977,9.5c0-2.604,2.117-4.721,4.721-4.721c2.604,0,4.723,2.116,4.723,4.721
			c0,2.606-2.119,4.723-4.723,4.723C109.093,14.228,106.977,12.106,106.977,9.5z"/>
		<path d="M70.081,257.637L46.706,230.61v-84.223l80.167-80.173c0.448-0.451,0.698-1.057,0.698-1.687V17.362
			c0-1.319-1.071-2.39-2.39-2.39c-1.321,0-2.39,1.071-2.39,2.39v46.176l-80.167,80.171c-0.448,0.448-0.698,1.055-0.698,1.685v86.104
			c0,0.578,0.212,1.129,0.583,1.567l23.958,27.694c0.474,0.547,1.136,0.831,1.806,0.831c0.556,0,1.108-0.196,1.563-0.583
			C70.837,260.144,70.942,258.636,70.081,257.637z"/>
		<path d="M150.444,62.835L69.58,143.709c-0.931,0.934-0.931,2.445,0,3.379c0.469,0.467,1.08,0.695,1.687,0.695
			c0.611,0,1.223-0.233,1.692-0.695l80.159-80.171h56.112c1.068,4.076,4.756,7.112,9.161,7.112c5.237,0,9.498-4.263,9.498-9.502
			c0-5.241-4.261-9.5-9.498-9.5c-4.405,0-8.093,3.034-9.161,7.11h-57.097C151.499,62.138,150.891,62.392,150.444,62.835z
			 M218.396,59.807c2.604,0,4.724,2.116,4.724,4.721c0,2.604-2.119,4.723-4.724,4.723c-2.604,0-4.723-2.119-4.723-4.723
			C213.673,61.923,215.792,59.807,218.396,59.807z"/>
		<path d="M247.37,76.512c0-1.318-1.073-2.39-2.39-2.39h-89.104c-0.635,0-1.242,0.254-1.689,0.705l-68.296,68.299
			c-4.716,0.546-8.401,4.521-8.401,9.39c0,5.241,4.261,9.497,9.5,9.497s9.5-4.261,9.5-9.497c0-3.584-2.016-6.669-4.945-8.284
			l65.316-65.325h88.109C246.296,78.902,247.37,77.833,247.37,76.512z M91.715,152.511c0,2.604-2.117,4.724-4.721,4.724
			c-2.604,0-4.721-2.119-4.721-4.724c0-2.604,2.116-4.723,4.721-4.723C89.599,147.788,91.715,149.907,91.715,152.511z"/>
		<path d="M218.419,93.622c1.068,4.082,4.756,7.113,9.161,7.113c5.237,0,9.503-4.264,9.503-9.502c0-5.241-4.266-9.5-9.503-9.5
			c-4.405,0-8.093,3.034-9.161,7.11h-57.214c-0.625,0-1.231,0.254-1.685,0.698l-41.768,41.525c-5.066,0.201-9.133,4.35-9.133,9.465
			c0,5.241,4.263,9.498,9.502,9.498c5.236,0,9.5-4.262,9.5-9.498c0-3.409-1.815-6.377-4.516-8.055l39.08-38.858h56.233V93.622z
			 M227.581,86.512c2.604,0,4.724,2.116,4.724,4.721c0,2.604-2.119,4.723-4.724,4.723c-2.604,0-4.723-2.119-4.723-4.723
			C222.858,88.628,224.977,86.512,227.581,86.512z M118.122,145.259c-2.604,0-4.723-2.119-4.723-4.724
			c0-2.606,2.119-4.723,4.723-4.723c2.604,0,4.721,2.117,4.721,4.723C122.842,143.135,120.726,145.259,118.122,145.259z"/>
		<path d="M86.995,275.815c5.239,0,9.5-4.266,9.5-9.502c0-5.241-4.261-9.503-9.5-9.503c-1.253,0-2.448,0.262-3.542,0.705
			l-23.268-26.901v-84.227l80.164-80.173c0.448-0.451,0.698-1.057,0.698-1.687V17.362c0-1.319-1.071-2.39-2.39-2.39
			s-2.39,1.071-2.39,2.39v46.176l-80.159,80.171c-0.45,0.448-0.698,1.055-0.698,1.685v86.104c0,0.578,0.206,1.129,0.583,1.567
			l23.636,27.321c-1.314,1.634-2.13,3.673-2.13,5.928C77.495,271.55,81.756,275.815,86.995,275.815z M86.995,261.59
			c2.604,0,4.721,2.119,4.721,4.724c0,2.604-2.117,4.718-4.721,4.718c-2.604,0-4.721-2.114-4.721-4.718
			C82.274,263.709,84.39,261.59,86.995,261.59z"/>
	</g>
</g>
<g>
</g>
<g>
</g>
<g>
</g>
<g>
</g>
<g>
</g>
<g>
</g>
<g>
</g>
<g>
</g>
<g>
</g>
<g>
</g>
<g>
</g>
<g>
</g>
<g>
</g>
<g>
</g>
<g>
</g>
</svg>
