<svg id="Capa_1" enable-background="new 0 0 511.996 511.996" height="512" viewBox="0 0 511.996 511.996" width="512" xmlns="http://www.w3.org/2000/svg"><g><path d="m255.998 511.996c-25.805 0-46.725-20.919-46.725-46.725v-5.925h93.45v5.925c0 25.806-20.919 46.725-46.725 46.725z" fill="#8d9ca8"/><path d="m302.721 459.342v5.929c0 25.806-20.916 46.723-46.723 46.723-3.423 0-6.765-.367-9.984-1.07 20.998-4.574 36.728-23.28 36.728-45.653v-5.929z" fill="#7a8c98"/><path d="m401.837 209.301c0-79.871-64.206-144.745-143.821-145.826-81.6-1.107-148.978 66.294-147.844 147.893.684 49.214 25.745 92.535 63.654 118.435 22.08 15.085 35.46 39.943 35.46 66.684v.007h93.422c0-26.472 12.892-51.442 34.828-66.261 38.795-26.207 64.301-70.591 64.301-120.932z" fill="#fedba6"/><path d="m401.841 209.306c0 50.339-25.511 94.719-64.307 120.922-10.973 7.407-19.673 17.361-25.633 28.761-5.97 11.411-9.19 24.268-9.19 37.502h-20.987c0-13.856 1.886-31.468 8.132-43.409 6.245-11.94 15.374-22.363 26.856-30.116 40.62-27.447 68.819-69.771 68.819-122.484 0-45.602-19.989-86.538-51.684-114.524 40.863 25.838 67.994 71.419 67.994 123.348z" fill="#fece85"/><path d="m317.179 267.133c-2.935-3.032-7.77-3.112-10.805-.176l-5.561 5.383-11.206-4.193c-1.727-.646-3.628-.646-5.355 0l-12.792 4.786-12.788-4.786c-1.727-.646-3.63-.646-5.357 0l-12.788 4.786-12.788-4.786c-1.727-.646-3.63-.646-5.357 0l-11.202 4.192-5.56-5.382c-3.034-2.936-7.871-2.856-10.805.176-2.935 3.032-2.856 7.869.175 10.804l34.863 33.749v84.808c0 4.22 3.421 7.641 7.641 7.641 4.221 0 7.641-3.421 7.641-7.641v-88.046c0-2.069-.84-4.051-2.326-5.49l-19.473-18.85 1.724-.645 12.788 4.786c1.727.646 3.63.646 5.357 0l12.788-4.786 12.788 4.786c1.727.646 3.63.646 5.356 0l12.792-4.786 1.726.646-19.472 18.85c-1.486 1.439-2.326 3.421-2.326 5.49v88.046c0 4.22 3.421 7.641 7.641 7.641s7.641-3.421 7.641-7.641v-84.808l34.863-33.749c3.034-2.935 3.112-7.773.177-10.805z" fill="#fdb441"/><g><g><path d="m255.998 31.826c-4.221 0-7.641-3.421-7.641-7.641v-16.544c0-4.22 3.421-7.641 7.641-7.641s7.641 3.421 7.641 7.641v16.544c0 4.22-3.42 7.641-7.641 7.641z" fill="#fedba6"/></g></g><g><g><path d="m158.953 57.833c-2.641 0-5.209-1.371-6.624-3.822l-8.272-14.328c-2.11-3.655-.858-8.328 2.797-10.438 3.652-2.111 8.329-.859 10.438 2.797l8.272 14.327c2.11 3.655.858 8.328-2.797 10.438-1.204.696-2.518 1.026-3.814 1.026z" fill="#fedba6"/></g></g><g><g><path d="m87.891 128.88c-1.296 0-2.61-.33-3.814-1.025l-14.327-8.272c-3.654-2.11-4.907-6.783-2.797-10.438 2.109-3.655 6.781-4.907 10.438-2.797l14.327 8.272c3.654 2.11 4.907 6.783 2.797 10.438-1.415 2.452-3.984 3.822-6.624 3.822z" fill="#fedba6"/></g><g><path d="m438.419 331.258c-1.296 0-2.611-.33-3.814-1.025l-14.327-8.272c-3.654-2.11-4.907-6.783-2.797-10.438s6.784-4.908 10.438-2.797l14.327 8.272c3.654 2.11 4.907 6.783 2.797 10.438-1.416 2.451-3.984 3.822-6.624 3.822z" fill="#fedba6"/></g></g><g><g><path d="m61.893 225.931h-16.544c-4.22 0-7.641-3.421-7.641-7.641s3.421-7.641 7.641-7.641h16.544c4.22 0 7.641 3.421 7.641 7.641s-3.42 7.641-7.641 7.641z" fill="#fedba6"/></g><g><path d="m466.647 225.931h-16.544c-4.221 0-7.641-3.421-7.641-7.641s3.421-7.641 7.641-7.641h16.544c4.22 0 7.641 3.421 7.641 7.641s-3.421 7.641-7.641 7.641z" fill="#fedba6"/></g></g><g><g><path d="m73.578 331.258c-2.641 0-5.208-1.371-6.624-3.822-2.11-3.654-.858-8.328 2.797-10.438l14.327-8.272c3.652-2.109 8.328-.859 10.438 2.797 2.11 3.654.858 8.328-2.797 10.438l-14.327 8.272c-1.204.694-2.518 1.025-3.814 1.025z" fill="#fedba6"/></g><g><path d="m424.106 128.88c-2.641 0-5.208-1.371-6.624-3.822-2.11-3.654-.858-8.328 2.797-10.438l14.327-8.272c3.652-2.11 8.327-.858 10.438 2.797 2.11 3.654.858 8.328-2.797 10.438l-14.327 8.272c-1.204.695-2.518 1.025-3.814 1.025z" fill="#fedba6"/></g></g><g><g><path d="m353.044 57.833c-1.296 0-2.61-.33-3.814-1.025-3.654-2.11-4.907-6.783-2.797-10.438l8.272-14.327c2.109-3.654 6.781-4.908 10.438-2.797 3.654 2.11 4.907 6.783 2.797 10.438l-8.272 14.328c-1.415 2.45-3.984 3.821-6.624 3.821z" fill="#fedba6"/></g></g><path d="m329.912 427.921h-147.828c-4.695 0-8.502-3.806-8.502-8.502v-16.459c0-4.695 3.806-8.502 8.502-8.502h147.829c4.695 0 8.502 3.806 8.502 8.502v16.459c-.001 4.695-3.807 8.502-8.503 8.502z" fill="#c5d3dd"/><path d="m310.23 460.365h-108.464c-4.695 0-8.502-3.806-8.502-8.502v-16.459c0-4.695 3.806-8.502 8.502-8.502h108.464c4.695 0 8.502 3.806 8.502 8.502v16.459c0 4.696-3.807 8.502-8.502 8.502z" fill="#c5d3dd"/><g fill="#b6c4cf"><path d="m338.41 402.961v16.454c0 4.697-3.8 8.507-8.497 8.507h-20.376c4.697 0 8.497-3.81 8.497-8.507v-16.454c0-4.697-3.8-8.507-8.497-8.507h20.376c4.696 0 8.497 3.811 8.497 8.507z"/><path d="m318.736 435.4v16.464c0 4.697-3.81 8.497-8.507 8.497h-20.376c4.697 0 8.507-3.8 8.507-8.497v-16.464c0-4.697-3.81-8.497-8.507-8.497h20.376c4.697 0 8.507 3.801 8.507 8.497z"/></g></g></svg>