<svg height="512" viewBox="0 0 512 512" width="512" xmlns="http://www.w3.org/2000/svg"><g id="Flat"><g fill="#9bd5dd"><path d="m336 464h-160a8 8 0 0 1 -5.657-2.343l-120-120a8 8 0 0 1 -2.343-5.657v-160a8 8 0 0 1 2.343-5.657l120-120a8 8 0 0 1 5.657-2.343h160a8 8 0 0 1 5.657 2.343l120 120a8 8 0 0 1 2.343 5.657v160a8 8 0 0 1 -2.343 5.657l-120 120a8 8 0 0 1 -5.657 2.343zm-156.687-16h153.374l115.313-115.313v-153.374l-115.313-115.313h-153.374l-115.313 115.313v153.374z"/><path d="m187.772 106.971-11.772-29.029 14.855-5.942 11.773 29.029z"/><path d="m149.029 221.828-74.47-29.473 5.941-14.855 74.471 29.472z"/><path d="m76.941 336.355-5.941-14.855 78.029-31.328 5.942 14.856z"/><path d="m191.355 438.442-14.855-5.942 11.272-27.471 14.856 5.942z"/><path d="m434.559 335.855-41.53-16.427 5.942-14.856 41.529 16.428z"/><path d="m362.971 221.828-5.942-14.856 77.971-31.472 5.941 14.855z"/><path d="m321.027 114.971-14.855-5.942 13.473-33.471 14.855 5.942z"/></g><circle cx="176" cy="56" fill="#d65246" r="32"/><circle cx="336" cy="56" fill="#d65246" r="32"/><circle cx="176" cy="456" fill="#d65246" r="32"/><circle cx="336" cy="456" fill="#d65246" r="32"/><circle cx="56" cy="176" fill="#d65246" r="32"/><circle cx="56" cy="336" fill="#d65246" r="32"/><circle cx="456" cy="176" fill="#d65246" r="32"/><circle cx="456" cy="336" fill="#d65246" r="32"/><rect fill="#348ed8" height="264" rx="24" width="160" x="176" y="128"/><path d="m232 144h48l8-16h-64z" fill="#2b78b7"/><path d="m274.343 253.657a25.969 25.969 0 0 0 -36.686 0l-11.314-11.314a41.989 41.989 0 0 1 59.314 0z" fill="#9bd5dd"/><path d="m298.343 233.539a59.882 59.882 0 0 0 -84.686 0l-11.314-11.313a75.968 75.968 0 0 1 107.314 0z" fill="#9bd5dd"/><path d="m240 352h32v16h-32z" fill="#2b78b7"/><path d="m248 280h16v16h-16z" fill="#2b78b7"/><path d="m216 280h16v16h-16z" fill="#2b78b7"/><path d="m364.284 252.284-28.284-28.284v80l-27.029-27.03a16.975 16.975 0 0 0 -12-4.97 16.97 16.97 0 0 0 -16.971 16.97 16.967 16.967 0 0 0 4.971 12l27.029 27.03a49.7 49.7 0 0 0 -3.1 49.8l3.1 6.2v8h64v-111.431a40 40 0 0 0 -11.716-28.285z" fill="#fdc8a2"/><rect fill="#fdb683" height="22.627" rx="8" transform="matrix(.707 -.707 .707 .707 -119.862 334.627)" width="16" x="336" y="300.686"/></g></svg>