<?xml version="1.0"?>
<svg xmlns="http://www.w3.org/2000/svg" viewBox="0 0 512 512" width="512" height="512"><g id="Outline"><path d="M16,336a39.973,39.973,0,0,0,62.042,33.356l64.6,64.6A39.993,39.993,0,1,0,215.2,464h81.61a40,40,0,1,0,72.551-30.042l34.8-34.8-11.314-11.314-34.8,34.8A39.972,39.972,0,0,0,296.805,448H215.2a40.1,40.1,0,0,0-17.219-25.4l4.652-11.63-14.856-5.942-4.647,11.619a39.795,39.795,0,0,0-29.167,6l-64.6-64.6a39.795,39.795,0,0,0,6-29.167l59.619-23.847-5.942-14.856L89.4,314.025A40.1,40.1,0,0,0,64,296.805V215.2a40.1,40.1,0,0,0,25.4-17.22l59.63,23.853,5.942-14.856L95.352,183.125a39.795,39.795,0,0,0-6-29.167l49.8-49.8L127.843,92.843l-49.8,49.8A39.993,39.993,0,1,0,48,215.2v81.61A40.068,40.068,0,0,0,16,336Zm320,96a24,24,0,1,1-24,24A24.028,24.028,0,0,1,336,432Zm-160,0a24,24,0,1,1-24,24A24.028,24.028,0,0,1,176,432ZM32,176a24,24,0,1,1,24,24A24.028,24.028,0,0,1,32,176ZM56,312a24,24,0,1,1-24,24A24.028,24.028,0,0,1,56,312ZM496,176a39.973,39.973,0,0,0-62.042-33.356l-64.6-64.6A39.993,39.993,0,1,0,296.805,48H215.2a40.043,40.043,0,1,0-32.07,47.352l4.647,11.619,14.856-5.942L197.976,89.4A40.1,40.1,0,0,0,215.2,64h81.61a40.1,40.1,0,0,0,17.219,25.4l-7.852,19.63,14.855,5.942,7.848-19.619a39.795,39.795,0,0,0,29.167-6l64.6,64.6a39.795,39.795,0,0,0-6,29.167l-59.619,23.847,5.942,14.856,59.63-23.853A40.1,40.1,0,0,0,448,215.2v81.61a40.1,40.1,0,0,0-25.4,17.22l-23.63-9.453-5.942,14.856,23.619,9.447a39.795,39.795,0,0,0,6,29.167l-15.8,15.8,11.314,11.314,15.8-15.8A39.993,39.993,0,1,0,464,296.805V215.2A40.068,40.068,0,0,0,496,176ZM176,80a24,24,0,1,1,24-24A24.028,24.028,0,0,1,176,80Zm160,0a24,24,0,1,1,24-24A24.028,24.028,0,0,1,336,80ZM480,336a24,24,0,1,1-24-24A24.028,24.028,0,0,1,480,336ZM456,200a24,24,0,1,1,24-24A24.028,24.028,0,0,1,456,200ZM184,184V368a16.019,16.019,0,0,0,16,16h88v16H200a32.036,32.036,0,0,1-32-32V184ZM368,376V288.568a31.79,31.79,0,0,0-9.372-22.627L344,251.314v57.372l13.657,13.657-11.314,11.314-16-16-27.03-27.03a8.97,8.97,0,1,0-12.685,12.687l27.029,27.029a8,8,0,0,1,1,10.095,41.8,41.8,0,0,0-2.6,41.784l3.1,6.2A7.994,7.994,0,0,1,320,392v8H304v-6.111l-2.256-4.512a57.851,57.851,0,0,1,.239-52.08l-22.67-22.67a24.971,24.971,0,0,1,35.315-35.313L328,292.686V152a16.019,16.019,0,0,0-16-16H292.944l-5.789,11.578A8,8,0,0,1,280,152H232a8,8,0,0,1-7.155-4.422L219.056,136H200a16.019,16.019,0,0,0-16,16v16H168V152a32.036,32.036,0,0,1,32-32H312a32.036,32.036,0,0,1,32,32v76.686l25.941,25.941A47.686,47.686,0,0,1,384,288.568V376ZM240,352h32v16H240Zm34.343-98.343a25.969,25.969,0,0,0-36.686,0l-11.314-11.314a41.989,41.989,0,0,1,59.314,0Zm24-20.118a59.882,59.882,0,0,0-84.686,0l-11.314-11.313a75.968,75.968,0,0,1,107.314,0ZM264,280v16H248V280Zm-48,0h16v16H216Z"/></g></svg>
