<svg width="184" height="184" viewBox="0 0 184 184" fill="none" xmlns="http://www.w3.org/2000/svg">
<g clip-path="url(#clip0)">
<path d="M125.333 98.2517C125.333 79.842 110.687 64.9189 92 64.9189C73.6719 64.9189 58.6672 79.842 58.6672 98.2517C58.6672 98.8497 58.6834 99.4448 58.7147 100.035L58.6669 100.047C58.6669 109.278 66.3593 122.951 69.4363 128.079C72.5132 133.207 75.0774 146.625 75.0774 146.625H84.3816H90.9743H92H109.178C109.178 146.625 111.487 133.207 114.563 128.079C117.64 122.951 125.333 109.32 125.333 100.089L125.285 100.056C125.316 99.4653 125.333 98.85 125.333 98.2517Z" fill="#F4C342"/>
<path d="M125.333 98.2517C125.333 79.842 110.687 64.9189 92 64.9189V146.625H109.178C109.178 146.625 111.487 133.207 114.563 128.079C117.64 122.951 125.333 109.32 125.333 100.089L125.285 100.056C125.316 99.4653 125.333 98.85 125.333 98.2517Z" fill="#F89B36"/>
<path d="M102.423 148.123C101.643 148.123 100.984 147.491 100.984 146.713V129.533C100.984 128.625 101.254 127.566 101.638 126.742L104.863 120.031H101.008C100.805 120.031 100.403 120.014 100.302 120.189L97.5717 124.765C97.1308 125.526 96.4347 125.881 95.6746 125.844C94.9109 125.81 94.2601 125.301 93.8896 124.503L91.9907 120.395L90.1115 124.474C89.7428 125.275 89.0934 125.75 88.3283 125.786C87.5603 125.82 86.8732 125.404 86.4304 124.643L83.7013 120.19C83.6003 120.015 83.1978 120.031 82.9951 120.031H79.1272L82.34 126.746C82.7199 127.571 83.0153 128.627 83.0153 129.534V146.713C83.0153 147.491 82.5366 148.123 81.7574 148.123C80.979 148.123 80.4996 147.491 80.4996 146.713V129.534C80.4996 129.033 80.1395 128.131 79.9297 127.676L76.2622 119.877C75.9165 119.127 75.9104 118.376 76.3136 117.746C76.7179 117.117 77.3831 116.797 78.2093 116.797H82.9948C84.2087 116.797 85.5316 117.517 86.1404 118.566L88.1482 122.003L90.1309 117.683C90.7957 116.238 91.0448 115.692 91.9853 115.692C92.9232 115.692 93.1734 116.229 93.8422 117.67L95.8482 121.992L97.8625 118.566C98.4709 117.517 99.7938 116.796 101.007 116.796H105.794C106.622 116.796 107.327 117.117 107.729 117.748C108.132 118.381 108.162 119.151 107.812 119.901L104.221 127.695C104.01 128.146 103.859 129.035 103.859 129.533V146.712C103.859 147.491 103.201 148.123 102.423 148.123Z" fill="#EC7C2D"/>
<path d="M105.794 116.797H101.008C99.7945 116.797 98.4716 117.517 97.8632 118.566L95.8489 122.013L93.8429 117.677C93.178 116.245 93.0785 115.694 92.0004 115.688V120.398L93.8907 124.472C94.2612 125.271 94.9106 125.748 95.6753 125.783C96.4347 125.82 97.1315 125.401 97.5728 124.641L100.302 120.188C100.404 120.014 100.806 120.031 101.008 120.031H104.864L101.639 126.742C101.255 127.566 100.985 128.624 100.985 129.534V146.625H103.86V129.534C103.86 129.035 104.011 128.137 104.222 127.685L107.83 119.881C108.179 119.13 108.141 118.381 107.739 117.748C107.336 117.117 106.622 116.797 105.794 116.797Z" fill="#D9521E"/>
<path d="M76.6152 145.188C73.7948 145.188 71.5156 146.969 71.5156 149.789V167.738C71.5156 179.02 80.8594 188.251 92 188.251V145.188H76.6152Z" fill="#BDC3C7"/>
<path d="M107.384 145.188H92V188.251C103.5 188.251 112.484 179.02 112.484 167.738V149.789C112.484 146.969 110.205 145.188 107.384 145.188Z" fill="#94A5A6"/>
<path d="M115.359 155.687V151.84C115.359 151.136 114.499 150.578 113.795 150.578H92V157.047H113.795C114.499 157.047 115.359 156.392 115.359 155.687Z" fill="#BDC3C7"/>
<path d="M70.2053 150.578C69.501 150.578 69 151.136 69 151.84V155.687C69 156.392 69.501 157.047 70.2053 157.047H92V150.578H70.2053Z" fill="#ECF0F1"/>
<path d="M113.795 168.906C114.5 168.906 115.359 168.187 115.359 167.481V163.635C115.359 162.93 114.499 162.438 113.795 162.438H92V168.906H113.795Z" fill="#BDC3C7"/>
<path d="M69 163.635V167.481C69 168.187 69.501 168.906 70.2053 168.906H92V162.438H70.2053C69.501 162.438 69 162.93 69 163.635Z" fill="#ECF0F1"/>
<path d="M92.1797 52.099C90.0554 52.099 88.4062 50.3772 88.4062 48.2526V36.9707C88.4062 34.8468 90.0554 33.1243 92.1797 33.1243C94.3032 33.1243 95.9531 34.8468 95.9531 36.9707V48.2526C95.9531 50.3772 94.3032 52.099 92.1797 52.099Z" fill="#F4C342"/>
<path d="M92.1797 52.099C90.0554 52.099 88.4062 50.3772 88.4062 48.2526V36.9707C88.4062 34.8468 90.0554 33.1243 92.1797 33.1243C94.3032 33.1243 95.9531 34.8468 95.9531 36.9707V48.2526C95.9531 50.3772 94.3032 52.099 92.1797 52.099Z" fill="#F4C342"/>
<path d="M152.256 101.344H140.973C138.85 101.344 137.127 99.6942 137.127 97.5703C137.127 95.4457 138.85 93.7969 140.973 93.7969H152.256C154.38 93.7969 156.101 95.4457 156.101 97.5703C156.101 99.6942 154.38 101.344 152.256 101.344Z" fill="#F89B36"/>
<path d="M152.256 101.344H140.973C138.85 101.344 137.127 99.6942 137.127 97.5703C137.127 95.4457 138.85 93.7969 140.973 93.7969H152.256C154.38 93.7969 156.101 95.4457 156.101 97.5703C156.101 99.6942 154.38 101.344 152.256 101.344Z" fill="#F89B36"/>
<path d="M43.0262 101.344H31.7443C29.6208 101.344 27.8983 99.6942 27.8983 97.5703C27.8983 95.4457 29.6208 93.7969 31.7443 93.7969H43.0262C45.1501 93.7969 46.8729 95.4457 46.8729 97.5703C46.8729 99.6942 45.1501 101.344 43.0262 101.344Z" fill="#F4C342"/>
<path d="M57.3706 66.4431C56.3856 66.4431 55.4016 66.0675 54.6509 65.3164L46.6731 57.3394C45.1709 55.8372 45.1709 53.4017 46.6731 51.8995C48.1753 50.3973 50.6108 50.3973 52.1122 51.8995L60.09 59.8773C61.5918 61.3788 61.5918 63.8142 60.09 65.3164C59.3389 66.0675 58.3546 66.4431 57.3706 66.4431Z" fill="#F4C342"/>
<path d="M126.629 66.4431C125.645 66.4431 124.661 66.0682 123.91 65.3171C122.407 63.8149 122.407 61.3802 123.91 59.878L131.887 51.8995C133.389 50.398 135.824 50.3973 137.326 51.8995C138.828 53.4017 138.828 55.8372 137.326 57.3394L129.349 65.3171C128.598 66.0682 127.613 66.4431 126.629 66.4431Z" fill="#F89B36"/>
<path d="M126.629 66.4431C125.645 66.4431 124.661 66.0682 123.91 65.3171C122.407 63.8149 122.407 61.3802 123.91 59.878L131.887 51.8995C133.389 50.398 135.824 50.3973 137.326 51.8995C138.828 53.4017 138.828 55.8372 137.326 57.3394L129.349 65.3171C128.598 66.0682 127.613 66.4431 126.629 66.4431Z" fill="#F89B36"/>
</g>
<defs>
<clipPath id="clip0">
<rect width="184" height="184" fill="white"/>
</clipPath>
</defs>
</svg>
