<svg xmlns="http://www.w3.org/2000/svg" xmlns:xlink="http://www.w3.org/1999/xlink" viewBox="0 0 500 500"><defs><clipPath id="freepik--clip-path--inject-100"><path d="M215.59,261.89a69.8,69.8,0,0,1-28.28,5.95c4.93,23.46,11.39,55.67,11.39,63.46,0,12.59-2.46,19.35-3.07,37.78s7.43,77,9.27,78.2,5.83,1.23,7.68.61,2.15.31,2.76-1.84,8-44.16,10.13-88.69,5.48-77.66,18.68-86.87,54.47.41,54.78,7.16S281,339.9,282.24,341.13s8,3.07,9.52,2.46,30.4-47.3,39.62-63.27,7.67-23-3.08-33.17-50.06-12-66-15.05c-3.86-.74-6.93-1.41-9.39-2C250.24,233.63,239.24,251.45,215.59,261.89Z" style="fill:#263238;stroke:#263238;stroke-linecap:round;stroke-linejoin:round"></path></clipPath><clipPath id="freepik--clip-path-2--inject-100"><path d="M258.75,212.23c.79-1.85-2.45-7.65-3.25-9.18-6.95-13.22-26.78-13.53-35.5-2-3.16,4.2-4.86,9.61-9,12.83-8.86,6.88-21.5-1.51-31-2.58-20.67-2.33-34.83,17.56-34.28,36.49.51,17.63,11.71,34.73,27.68,42.21.81.38,1.62.73,2.45,1.05,18.72,7.39,36.65-1.6,47-17.75,3.09-4.84,5.77-9.94,8.91-14.76,1.65-2.54,3.77-4.93,6.58-6.07,5.57-2.25,12.71-.54,18.68-2.23,4.15-1.17,10.26-3.29,12.22-7.58,2.18-4.75-.6-4.89-4.59-4.65s-8.52-3.48-8.94-10.53S258.75,212.24,258.75,212.23Z" style="fill:#757575;stroke:#263238;stroke-linecap:round;stroke-linejoin:round"></path></clipPath></defs><g id="freepik--background-simple--inject-100"><path d="M333.11,35.89S259.66,14.26,187.13,58,77.62,183.33,45.89,248.78,31.75,378.36,86.71,405.29s92.77-18.61,170.17-24.54,98.14,3.71,162.63-41.6S496.27,193.69,446.1,122.5,333.11,35.89,333.11,35.89Z" style="fill:#FFDC8F"></path><path d="M333.11,35.89S259.66,14.26,187.13,58,77.62,183.33,45.89,248.78,31.75,378.36,86.71,405.29s92.77-18.61,170.17-24.54,98.14,3.71,162.63-41.6S496.27,193.69,446.1,122.5,333.11,35.89,333.11,35.89Z" style="fill:#fff;opacity:0.8"></path></g><g id="freepik--Floor--inject-100"><ellipse cx="241.83" cy="448.6" rx="226.83" ry="29.6" style="fill:#FFDC8F"></ellipse><ellipse cx="241.83" cy="448.6" rx="226.83" ry="29.6" style="fill:#fff;opacity:0.5"></ellipse><line x1="39" y1="413.74" x2="469" y2="413.74" style="fill:none;stroke:#263238;stroke-miterlimit:10"></line></g><g id="freepik--Music--inject-100"><path d="M445.05,178a.46.46,0,0,1-.27-.09c-27.42-18.46-63.36-21.71-105-25.47-27.12-2.45-57.84-5.23-91-12.58C165.17,121.34,118.39,60.3,117.93,59.68A.5.5,0,0,1,118,59a.51.51,0,0,1,.7.1c.47.61,47,61.37,130.28,79.81,33.13,7.34,63.82,10.11,90.91,12.56,41.74,3.78,77.8,7,105.42,25.64a.51.51,0,0,1,.14.7A.52.52,0,0,1,445.05,178Z" style="fill:#FFDC8F"></path><path d="M430.75,193.36a.47.47,0,0,1-.28-.09c-27.42-18.46-63.35-21.71-105-25.47-27.12-2.45-57.84-5.23-91-12.59C150.86,136.69,104.08,75.65,103.62,75a.49.49,0,0,1,.1-.7.5.5,0,0,1,.7.1c.46.61,47,61.36,130.27,79.81,33.13,7.34,63.82,10.11,90.91,12.56,41.74,3.78,77.8,7,105.42,25.64a.51.51,0,0,1,.14.7A.5.5,0,0,1,430.75,193.36Z" style="fill:#FFDC8F"></path><path d="M416.44,208.71a.47.47,0,0,1-.28-.09c-27.42-18.46-63.35-21.71-105-25.47-27.12-2.45-57.84-5.23-91-12.59C136.55,152,89.77,91,89.31,90.38a.5.5,0,1,1,.8-.6c.46.61,47,61.36,130.27,79.81,33.13,7.34,63.83,10.11,90.91,12.56,41.74,3.78,77.8,7,105.42,25.64a.5.5,0,0,1,.14.69A.49.49,0,0,1,416.44,208.71Z" style="fill:#FFDC8F"></path><path d="M402.13,224.05a.46.46,0,0,1-.28-.08c-27.42-18.46-63.35-21.71-105-25.47-27.11-2.46-57.84-5.23-91-12.59C122.24,167.39,75.46,106.34,75,105.73a.5.5,0,0,1,.8-.6c.46.61,47,61.36,130.27,79.81,33.13,7.34,63.83,10.11,90.91,12.56,41.74,3.77,77.8,7,105.43,25.64a.5.5,0,0,1,.13.69A.48.48,0,0,1,402.13,224.05Z" style="fill:#FFDC8F"></path><path d="M152.61,88.52s-4.53,1.57-3,2.61,6.61,14.43,5.56,16.17-4.34-4-6.26-2.09.87,6.61,3.83,6.26,4.35-3.3,3.65-7S153.3,95,153,93.74s1.05-1.91,3.13-.7,5.74-.87,6.79-3.13.17-6.08.17-6.08.69,1.91-2.78,2.78S153.82,88,152.61,88.52Z" style="fill:#FFDC8F"></path><path d="M132.49,148.66s-4.52,1.57-3,2.61,6.61,14.43,5.57,16.17-4.35-4-6.26-2.09.87,6.61,3.82,6.26,4.35-3.3,3.66-7-3.13-9.56-3.48-10.78,1-1.91,3.13-.7,5.74-.87,6.78-3.13.17-6.08.17-6.08.7,1.91-2.78,2.78S133.71,148.14,132.49,148.66Z" style="fill:#FFDC8F"></path><path d="M409.12,164.28a67.48,67.48,0,0,1-6.59-3.83c-3.2-2.14-5-1.11-4.54.31s-2.29,11.49-6.39,16.81-3.72-.75-6.81-1.8-4.76,2-2.39,5.54,7.73,2.47,8.44.3,5.73-11.68,7.22-14,2.59-2.19,5.29.5a10.11,10.11,0,0,0,9.12,3s-5.53,10.6-7.22,14-3.09,7.7-5.58,7.61-5.3-5-7.28-2,3.93,8.11,7.11,6.66,5.13-8.11,7.49-12.71,9.19-16.72,8.78-18.45S412.18,166.27,409.12,164.28Z" style="fill:#FFDC8F"></path><path d="M345,184.67a48,48,0,0,1-4.66-2.71c-2.27-1.51-3.51-.78-3.21.22s-1.62,8.13-4.52,11.89-2.63-.53-4.82-1.27-3.36,1.42-1.68,3.92,5.46,1.74,6,.21a92.13,92.13,0,0,1,5.1-9.88c1.06-1.62,1.84-1.55,3.75.35a7.17,7.17,0,0,0,6.45,2.11s-3.91,7.49-5.11,9.88-2.18,5.45-4,5.39-3.74-3.56-5.14-1.4,2.78,5.74,5,4.71,3.63-5.73,5.29-9,6.5-11.82,6.21-13S347.19,186.08,345,184.67Z" style="fill:#FFDC8F"></path><path d="M360.78,199.34a37.27,37.27,0,0,1-3.51-2c-1.71-1.14-2.65-.59-2.42.16s-1.22,6.13-3.41,9-2-.41-3.63-1-2.54,1.07-1.27,2.95,4.12,1.32,4.49.16a71.6,71.6,0,0,1,3.85-7.45c.8-1.22,1.39-1.17,2.83.27a5.38,5.38,0,0,0,4.86,1.59s-2.95,5.65-3.85,7.45-1.65,4.11-3,4.06-2.82-2.68-3.88-1.05,2.1,4.32,3.79,3.55,2.74-4.32,4-6.78,4.91-8.91,4.69-9.84S362.41,200.4,360.78,199.34Z" style="fill:#FFDC8F"></path><path d="M129.64,88.4A49.18,49.18,0,0,1,125,85.7c-2.27-1.52-3.51-.79-3.21.21s-1.62,8.13-4.52,11.9-2.63-.54-4.82-1.28-3.36,1.43-1.68,3.92,5.46,1.74,6,.21a92.13,92.13,0,0,1,5.1-9.88c1.06-1.62,1.84-1.55,3.75.35A7.13,7.13,0,0,0,132,93.24s-3.92,7.49-5.11,9.88-2.18,5.45-4,5.39-3.74-3.56-5.14-1.4,2.78,5.74,5,4.71,3.63-5.73,5.29-9,6.5-11.83,6.21-13S131.8,89.81,129.64,88.4Z" style="fill:#FFDC8F"></path><path d="M448.62,285.19a.49.49,0,0,1-.28-.09c-31.27-21.06-72.25-24.76-119.7-29.05-30.91-2.8-65.94-6-103.78-14.35-49.81-11-87.71-35.29-110.73-53.69-24.95-19.95-38.3-37.53-38.43-37.7a.5.5,0,1,1,.8-.6c.13.17,13.42,17.67,38.28,37.54,22.94,18.33,60.69,42.49,110.29,53.48,37.78,8.37,72.78,11.53,103.66,14.32,47.59,4.31,88.68,8,120.17,29.22a.51.51,0,0,1,.14.7A.52.52,0,0,1,448.62,285.19Z" style="fill:#FFDC8F"></path><path d="M432.31,302.69a.47.47,0,0,1-.28-.09c-31.28-21.06-72.26-24.76-119.7-29.05-30.91-2.8-65.95-6-103.79-14.35-49.8-11-87.7-35.29-110.72-53.69-24.95-19.95-38.3-37.53-38.44-37.7a.51.51,0,0,1,.1-.7.5.5,0,0,1,.7.1c.13.17,13.43,17.67,38.29,37.54,22.93,18.33,60.69,42.49,110.29,53.48,37.78,8.37,72.78,11.53,103.66,14.32,47.58,4.31,88.68,8,120.16,29.22a.5.5,0,0,1-.27.92Z" style="fill:#FFDC8F"></path><path d="M416,320.19a.49.49,0,0,1-.28-.09C384.44,299,343.46,295.34,296,291.05c-30.91-2.8-65.94-6-103.78-14.35-49.81-11-87.71-35.29-110.73-53.69-25-19.95-38.3-37.53-38.43-37.7a.5.5,0,1,1,.8-.6c.13.17,13.42,17.67,38.28,37.54,22.94,18.33,60.69,42.49,110.29,53.48,37.78,8.37,72.78,11.53,103.66,14.32,47.59,4.31,88.68,8,120.17,29.22a.51.51,0,0,1,.14.7A.52.52,0,0,1,416,320.19Z" style="fill:#FFDC8F"></path><path d="M399.68,337.69a.47.47,0,0,1-.28-.09c-31.28-21.06-72.26-24.76-119.7-29.05-30.91-2.8-65.95-6-103.79-14.35-49.8-11-87.7-35.29-110.72-53.69-24.95-19.95-38.3-37.53-38.44-37.7a.51.51,0,0,1,.1-.7.5.5,0,0,1,.7.1c.13.17,13.43,17.67,38.29,37.54,22.93,18.33,60.69,42.49,110.29,53.48,37.78,8.37,72.78,11.53,103.66,14.32,47.58,4.31,88.68,8,120.17,29.22a.51.51,0,0,1,.13.7A.5.5,0,0,1,399.68,337.69Z" style="fill:#FFDC8F"></path><path d="M127.59,243.33s-5.16,1.79-3.38,3,7.54,16.45,6.35,18.44-5-4.56-7.14-2.38,1,7.53,4.36,7.13,5-3.76,4.17-7.93-3.57-10.9-4-12.29,1.19-2.18,3.57-.79,6.54-1,7.73-3.57.2-6.94.2-6.94.79,2.18-3.17,3.17S129,242.74,127.59,243.33Z" style="fill:#FFDC8F"></path><path d="M356.51,245.12s-5.15,1.79-3.37,3,7.54,16.45,6.35,18.43-5-4.56-7.14-2.38,1,7.54,4.36,7.14,5-3.77,4.16-7.93-3.57-10.9-4-12.29,1.19-2.18,3.57-.79,6.54-1,7.73-3.57.2-6.94.2-6.94.79,2.18-3.17,3.17S357.9,244.53,356.51,245.12Z" style="fill:#FFDC8F"></path><path d="M332.12,295.55s-5.16,1.79-3.37,3S336.28,315,335.09,317s-4.95-4.56-7.14-2.38,1,7.53,4.37,7.13,4.95-3.76,4.16-7.93-3.57-10.9-4-12.29,1.19-2.18,3.57-.79,6.55-1,7.74-3.57.19-6.94.19-6.94.8,2.18-3.17,3.17S333.51,295,332.12,295.55Z" style="fill:#FFDC8F"></path><path d="M101.41,213.32A79,79,0,0,1,93.9,209c-3.66-2.45-5.66-1.28-5.18.35s-2.61,13.09-7.28,19.17-4.25-.87-7.77-2.06-5.43,2.3-2.72,6.32,8.81,2.81,9.61.34,6.54-13.31,8.23-15.93,3-2.5,6,.57a11.52,11.52,0,0,0,10.39,3.4S98.92,233.2,97,237.05s-3.52,8.79-6.37,8.69-6-5.74-8.3-2.26,4.49,9.25,8.11,7.6,5.86-9.24,8.54-14.49,10.48-19.06,10-21S104.89,215.59,101.41,213.32Z" style="fill:#FFDC8F"></path><path d="M393.72,270.92a56,56,0,0,1-5.31-3.09c-2.58-1.73-4-.9-3.66.25s-1.84,9.26-5.15,13.55-3-.61-5.49-1.45-3.84,1.63-1.93,4.47,6.24,2,6.8.24a105.34,105.34,0,0,1,5.82-11.27c1.2-1.84,2.1-1.76,4.28.41a8.14,8.14,0,0,0,7.35,2.4S392,285,390.61,287.7s-2.49,6.21-4.51,6.14-4.27-4.06-5.87-1.59,3.18,6.54,5.74,5.37,4.14-6.54,6-10.25,7.41-13.48,7.08-14.88S396.19,272.52,393.72,270.92Z" style="fill:#FFDC8F"></path><path d="M411.68,287.64a40.66,40.66,0,0,1-4-2.33c-1.95-1.3-3-.67-2.76.19s-1.39,7-3.88,10.22-2.27-.46-4.14-1.1-2.9,1.23-1.45,3.37,4.69,1.5,5.12.19a80.13,80.13,0,0,1,4.39-8.5c.9-1.39,1.58-1.33,3.22.31a6.15,6.15,0,0,0,5.54,1.81s-3.36,6.44-4.39,8.49-1.87,4.69-3.39,4.63-3.22-3.06-4.42-1.2,2.39,4.93,4.32,4,3.12-4.93,4.55-7.73,5.59-10.16,5.34-11.21S413.54,288.85,411.68,287.64Z" style="fill:#FFDC8F"></path><path d="M89,183.1A54.6,54.6,0,0,1,83.69,180c-2.59-1.73-4-.9-3.67.25s-1.84,9.26-5.14,13.56-3-.62-5.5-1.46-3.84,1.63-1.92,4.47,6.23,2,6.8.24a102.51,102.51,0,0,1,5.82-11.26c1.2-1.85,2.09-1.77,4.27.4a8.14,8.14,0,0,0,7.35,2.4s-4.46,8.54-5.82,11.27-2.49,6.21-4.51,6.14-4.26-4.06-5.86-1.59,3.17,6.54,5.73,5.37,4.14-6.53,6-10.25,7.41-13.48,7.08-14.87S91.46,184.7,89,183.1Z" style="fill:#FFDC8F"></path></g><g id="freepik--Plants--inject-100"><path d="M79,378.1S52.49,331.58,58.6,319.75s21.74,9.46,21.74,9.46-13.59-43.37-6.12-62.29,20.38,0,21.06,13.4-2.72,36.28-2.72,36.28S98,269.28,110.9,283.48,94.6,345,94.6,345s19.7-11,19,3.16S89.85,375,89.85,375" style="fill:#FFDC8F"></path><path d="M79.2,369.43s-24.51-22.87-12.57-33.12,18.23,11,18.23,11S71.66,281.9,93,279.53s5.66,56.78,5.66,56.78,18.23-25.23,17-4.73-28.28,37.85-28.28,37.85" style="fill:none;stroke:#263238;stroke-miterlimit:10"></path><line x1="91.25" y1="365.27" x2="74.68" y2="347.32" style="fill:none;stroke:#263238;stroke-miterlimit:10"></line><line x1="87.79" y1="366.65" x2="92.28" y2="314.18" style="fill:none;stroke:#263238;stroke-miterlimit:10"></line><line x1="87.1" y1="362.85" x2="101.95" y2="343.18" style="fill:none;stroke:#263238;stroke-miterlimit:10"></line><polygon points="108.57 359.19 62.75 359.19 67.33 413.24 103.99 413.24 108.57 359.19" style="fill:#263238"></polygon></g><g id="freepik--Character--inject-100"><path d="M190,295.43s4.57,123.71,0,146.68-24.12,24.7-68.93,21.26S10.18,453,40.05,441s118.32-9.19,110.85-1.72-48.82,5.17-60.88.58,48.24-19.53,80.41-15.51,50,18.38,127.51,38.48,133.83-2.3,132.11-17.8S379.51,428.9,361.7,428.9" style="fill:none;stroke:#263238;stroke-linecap:round;stroke-linejoin:round;stroke-width:2px"></path><polygon points="279 365.67 303.41 358.69 379.03 364.07 365.01 371.53 279 365.67" style="fill:#666;stroke:#263238;stroke-linecap:round;stroke-linejoin:round"></polygon><polygon points="379.03 364.07 378.43 444.52 363.67 456.57 365.01 371.53 379.03 364.07" style="fill:#2b2b2b;stroke:#263238;stroke-linecap:round;stroke-linejoin:round"></polygon><polygon points="281.8 443.88 282.95 446.51 287.22 447.16 289.63 444.86 281.8 443.88" style="fill:#263238;stroke:#263238;stroke-linecap:round;stroke-linejoin:round"></polygon><polygon points="353.64 454.88 354.78 457.51 359.05 458.16 361.46 455.86 353.64 454.88" style="fill:#263238;stroke:#263238;stroke-linecap:round;stroke-linejoin:round"></polygon><polygon points="279 365.67 277.83 443.04 363.67 456.57 365.01 371.53 279 365.67" style="fill:#404040;stroke:#263238;stroke-linecap:round;stroke-linejoin:round"></polygon><polygon points="285.83 372.98 284.85 437.91 356.87 449.26 358 377.9 285.83 372.98" style="stroke:#263238;stroke-linecap:round;stroke-linejoin:round"></polygon><polygon points="289.03 436.51 356.9 447.21 358 377.9 289.98 373.26 289.03 436.51" style="fill:#263238;stroke:#263238;stroke-linecap:round;stroke-linejoin:round"></polygon><polygon points="289.8 385.6 357.78 391.86 358 377.9 289.98 373.26 289.8 385.6" style="fill:#FFDC8F;stroke:#263238;stroke-linecap:round;stroke-linejoin:round"></polygon><path d="M301.45,379.48a3.25,3.25,0,1,1-3.25-3.25A3.24,3.24,0,0,1,301.45,379.48Z" style="fill:#263238;stroke:#263238;stroke-linecap:round;stroke-linejoin:round"></path><circle cx="310.28" cy="380.41" r="3.25" style="fill:#263238;stroke:#263238;stroke-linecap:round;stroke-linejoin:round"></circle><path d="M325.6,381.34a3.25,3.25,0,1,1-3.25-3.25A3.24,3.24,0,0,1,325.6,381.34Z" style="fill:#263238;stroke:#263238;stroke-linecap:round;stroke-linejoin:round"></path><path d="M337.68,382.27a3.25,3.25,0,1,1-3.25-3.25A3.24,3.24,0,0,1,337.68,382.27Z" style="fill:#263238;stroke:#263238;stroke-linecap:round;stroke-linejoin:round"></path><polygon points="312.85 363.56 312.85 361.56 316.6 360.6 343.96 362.52 343.64 364.44 341 365.66 312.85 363.56" style="fill:#263238"></polygon><path d="M283.06,341.13s-5.84,10.23-5.11,12.79,12.79,4.75,18.27,8.4,10.59,4.75,13.88,3.65,6.21-.73,4.75-4.75-5.85-3.28-9.13-5.11-12.44-11.51-13.17-12.61S283.06,341.13,283.06,341.13Z" style="fill:#FFDC8F;stroke:#263238;stroke-linecap:round;stroke-linejoin:round"></path><path d="M293.75,345.17s-1.85,3.7-3.08,4" style="fill:none;stroke:#263238;stroke-linecap:round;stroke-linejoin:round"></path><path d="M295.91,347.33s0,3.69-1.85,4.62" style="fill:none;stroke:#263238;stroke-linecap:round;stroke-linejoin:round"></path><path d="M299.6,351.33s.62.92-1.23,2.46" style="fill:none;stroke:#263238;stroke-linecap:round;stroke-linejoin:round"></path><path d="M303,354.1s-.31.31-2.16,1.85" style="fill:none;stroke:#263238;stroke-linecap:round;stroke-linejoin:round"></path><path d="M306.77,356.59a5.13,5.13,0,0,0-1.42,1.35,12.62,12.62,0,0,0-2.19,4.38A60.19,60.19,0,0,0,290,355a68.8,68.8,0,0,0-11.69-3.68,5.45,5.45,0,0,0-.36,2.59c.73,2.55,12.79,4.75,18.27,8.4s10.59,4.75,13.88,3.65,6.21-.73,4.75-4.75C313.54,357.62,309.88,357.82,306.77,356.59Z" style="fill:#fff;stroke:#263238;stroke-linecap:round;stroke-linejoin:round"></path><polygon points="173.95 191.88 168.83 216.68 171.59 216.28 178.28 193.85 173.95 191.88" style="fill:#263238;stroke:#263238;stroke-linecap:round;stroke-linejoin:round"></polygon><path d="M215.34,446.05a31.86,31.86,0,0,0,2.36,6.17c1.19,1.9,18.37,11,17.41,15.26-.36,1.65-1.67,4.06-9.54,4.54s-15.42-5.41-19.08-7.4c-5.71-3.09-6.68-4.53-6-7.63s3.58-13.6,3.58-13.6A59.11,59.11,0,0,0,215.34,446.05Z" style="fill:#FFDC8F;stroke:#263238;stroke-linecap:round;stroke-linejoin:round"></path><path d="M208.77,452.32a10.18,10.18,0,0,1,7.7-2.15" style="fill:none;stroke:#263238;stroke-linecap:round;stroke-linejoin:round"></path><path d="M210.92,454.17s3.7-2.68,6.78-1.95" style="fill:none;stroke:#263238;stroke-linecap:round;stroke-linejoin:round"></path><path d="M214,456.64s4.62-2.78,7.39-1.24" style="fill:none;stroke:#263238;stroke-linecap:round;stroke-linejoin:round"></path><path d="M217.7,459.1s4-2.16,7.08-1.23" style="fill:none;stroke:#263238;stroke-linecap:round;stroke-linejoin:round"></path><path d="M206.72,452.33c0,1.78-.85,3.23-1.9,3.23s-1.91-1.45-1.91-3.23.85-3.22,1.91-3.22S206.72,450.56,206.72,452.33Z" style="fill:#fff;stroke:#263238;stroke-linecap:round;stroke-linejoin:round"></path><path d="M231.37,462.11c-2.12,0-5.32.39-7,2.51-2.63,3.34-2.86,4.3-2.86,4.3A95,95,0,0,0,208.16,461a19.71,19.71,0,0,1-7.26-5.6c-.16.61-.29,1.14-.38,1.55-.71,3.1.26,4.54,6,7.63,3.66,2,11.21,7.87,19.08,7.4s9.18-2.89,9.54-4.54C235.43,466.07,233.77,464.13,231.37,462.11Z" style="fill:#fff;stroke:#263238;stroke-linecap:round;stroke-linejoin:round"></path><path d="M226.65,115.7s17.2,2.15,20,8.29,14.13,55.9,15.05,58.66,23.95,7.68,37.78,7.68,8.29,1.54,4,4.3-17.2,5.84-30.41,7.68-22.11.61-26.1-5.22S237.09,163,233.1,144,226.65,115.7,226.65,115.7Z" style="fill:#fff;stroke:#263238;stroke-linecap:round;stroke-linejoin:round"></path><path d="M246.61,124c-2.76-6.14-20-8.29-20-8.29s2.45,9.21,6.45,28.26c1.3,6.22,2.81,13.43,4.38,20.52,1.29-.21,2.79-.49,4.52-.87,4.27-.93,9.76-4.09,13.45-6.46C252,142.85,248.08,127.26,246.61,124Z" style="fill:#FFDC8F;stroke:#263238;stroke-linecap:round;stroke-linejoin:round"></path><path d="M236.22,158.73c.74,3.45,1.51,6.94,2.29,10.34a40.06,40.06,0,0,0,17.65-9c-.7-2.89-1.42-5.88-2.15-8.84A41.34,41.34,0,0,1,236.22,158.73Z" style="fill:#263238;stroke:#263238;stroke-linecap:round;stroke-linejoin:round"></path><path d="M321.87,179.05s3.24-7,3.59-7.41,8.52-1,6.37,1.85c-.28.36-5.39,1.06-5.39,1.06l-1.22,2.87Z" style="fill:#fff;stroke:#263238;stroke-linecap:round;stroke-linejoin:round"></path><path d="M328.3,247.15c-10.74-10.14-50.06-12-66-15.05-3.86-.74-6.93-1.41-9.39-2-4.68-21.75-16.22-63.6-18.25-86.15-.5-5.57-2.67-31.52-13-29-20,4.89-55,14.87-56.23,40.18-1,20.39,7.47,42.07,11.21,61.9,1.86,9.9,3.6,18.21,5.37,25.15l-.15,0s16.89,76.48,16.89,89.07-2.46,19.35-3.07,37.78,7.43,77,9.27,78.2,5.83,1.23,7.68.61,2.15.31,2.76-1.84,8-44.16,10.13-88.69,5.48-77.66,18.68-86.87,66.65-8,67-1.23S281,339.9,282.24,341.13s8,3.07,9.52,2.46,30.4-47.3,39.62-63.27S339.05,257.28,328.3,247.15Z" style="fill:#FFDC8F;stroke:#263238;stroke-linecap:round;stroke-linejoin:round"></path><path d="M221.61,115c-10.92,2.67-26.31,6.87-38.23,14.24,4.78,6.93,17.74,24.61,27.08,26.88,11,2.67,15.71-28.72,14.7-40.81A5.14,5.14,0,0,0,221.61,115Z" style="fill:#263238;stroke:#263238;stroke-linecap:round;stroke-linejoin:round"></path><path d="M222,110s7.08,54.7,26.76,83l5.5,3.94c1,0-17.54-41.82-26-87Z" style="fill:#263238;stroke:#263238;stroke-linecap:round;stroke-linejoin:round"></path><path d="M220.73,122.16c-1.14-1.51-2.27-2.68-3.29-4.08-3.09-4.28-1.9-13.4,1.62-16.58A11.83,11.83,0,0,0,218,99.63c-4-5.48-19.78-2.68-23.82,1.82a38.55,38.55,0,0,1,2.64,5.64c1,3.06,1.85,6.5,1.2,9.73-.83,4.18-4.22,5.7-7.15,8.31,3.34,5.69,12.65,18.53,16.77,20.49C212.53,148,219.22,128,220.73,122.16Z" style="fill:#fff;stroke:#263238;stroke-linecap:round;stroke-linejoin:round"></path><path d="M216.18,105.81a8.84,8.84,0,0,1,3-4c4.62-2.89,15.9-6.65,18.79-12.14a22,22,0,0,0-5.21-16.48c-6.64-8.09-19.37-12.41-29.63-9.07C189.65,68.54,186.7,81,189.46,90.26c1.55,5.2,4.24,10.45,6,14.24,2.91.76,7.51,1.12,12.78,1.37A72.45,72.45,0,0,0,216.18,105.81Z" style="fill:#263238;stroke:#263238;stroke-linecap:round;stroke-linejoin:round"></path><path d="M206.67,100s-1.91-10.32-5.91-10.32-5.86,9.59-4,14.39,5.33,2.93,5.33,2.93a60.81,60.81,0,0,0,4.7,8.92c2.14,2.93,9.26,9.88,17.45,9.88,3.46,0,8.26-17.59,9.33-24.52s1.06-9.85-.8-15.45-9.6-2.13-16.26,2.66A33.69,33.69,0,0,0,206.67,100Z" style="fill:#fff;stroke:#263238;stroke-linecap:round;stroke-linejoin:round"></path><path d="M211.47,87.38s8.49-2.46,16,6.08c7.3,8.31,15.87,3.53,18.89-1.26,4.76-7.54,10.33-2.4,10.33-11.59s-6.16-9.89-12.48-8.17-2.87-9.19-11.49-10.34-10.91,4-13.21,5.75" style="fill:#263238;stroke:#263238;stroke-linecap:round;stroke-linejoin:round"></path><path d="M233.3,96.05s-2.24.18-2.43,1.87.93,7.84.56,11-4.48,2.43-6.54.75" style="fill:#fff;stroke:#263238;stroke-linecap:round;stroke-linejoin:round"></path><path d="M224,94.74s-5-3.73-8,.37" style="fill:#fff;stroke:#263238;stroke-linecap:round;stroke-linejoin:round"></path><path d="M223.21,97.73l-.18,2.43s-4.11,1.49-6.72-.94" style="fill:#fff;stroke:#263238;stroke-linecap:round;stroke-linejoin:round"></path><path d="M215.59,261.89a69.8,69.8,0,0,1-28.28,5.95c4.93,23.46,11.39,55.67,11.39,63.46,0,12.59-2.46,19.35-3.07,37.78s7.43,77,9.27,78.2,5.83,1.23,7.68.61,2.15.31,2.76-1.84,8-44.16,10.13-88.69,5.48-77.66,18.68-86.87,54.47.41,54.78,7.16S281,339.9,282.24,341.13s8,3.07,9.52,2.46,30.4-47.3,39.62-63.27,7.67-23-3.08-33.17-50.06-12-66-15.05c-3.86-.74-6.93-1.41-9.39-2C250.24,233.63,239.24,251.45,215.59,261.89Z" style="fill:#263238"></path><g style="clip-path:url(#freepik--clip-path--inject-100)"><path d="M298.93,277.65s16.74,10.17,24.22,10.85" style="fill:none;stroke:#6b6b6b;stroke-linecap:round;stroke-linejoin:round"></path><path d="M288.5,272.19s13.59,14.27,23.78,20.39" style="fill:none;stroke:#6b6b6b;stroke-linecap:round;stroke-linejoin:round"></path><path d="M290.54,283.06s10.19,16.31,19,20.39" style="fill:none;stroke:#6b6b6b;stroke-linecap:round;stroke-linejoin:round"></path><path d="M247.06,269.48s6.79-7.48,34-12.23" style="fill:none;stroke:#6b6b6b;stroke-linecap:round;stroke-linejoin:round"></path><path d="M269.48,263.36s17.66-2,27.17-3.4" style="fill:none;stroke:#6b6b6b;stroke-linecap:round;stroke-linejoin:round"></path><path d="M228,344.89s-9.51,34-16.3,54.35" style="fill:none;stroke:#6b6b6b;stroke-linecap:round;stroke-linejoin:round"></path><path d="M223.28,378.86a116,116,0,0,1-19,42.8" style="fill:none;stroke:#6b6b6b;stroke-linecap:round;stroke-linejoin:round"></path></g><path d="M215.59,261.89a69.8,69.8,0,0,1-28.28,5.95c4.93,23.46,11.39,55.67,11.39,63.46,0,12.59-2.46,19.35-3.07,37.78s7.43,77,9.27,78.2,5.83,1.23,7.68.61,2.15.31,2.76-1.84,8-44.16,10.13-88.69,5.48-77.66,18.68-86.87,54.47.41,54.78,7.16S281,339.9,282.24,341.13s8,3.07,9.52,2.46,30.4-47.3,39.62-63.27,7.67-23-3.08-33.17-50.06-12-66-15.05c-3.86-.74-6.93-1.41-9.39-2C250.24,233.63,239.24,251.45,215.59,261.89Z" style="fill:none;stroke:#263238;stroke-linecap:round;stroke-linejoin:round"></path><path d="M184.38,289.74l1.85,4.25a2.6,2.6,0,0,0,2.3,1.55l3.5.09a2.6,2.6,0,0,0,2.48-1.61l2-4.94Z" style="fill:#fff;stroke:#263238;stroke-linecap:round;stroke-linejoin:round"></path><path d="M261.63,211.16c.79-1.86-2.45-7.65-3.26-9.19-7-13.22-26.78-13.53-35.49-2-3.17,4.2-4.87,9.61-9,12.83-8.86,6.89-21.51-1.51-31-2.58-20.67-2.33-34.84,17.56-34.29,36.49.51,17.63,11.71,34.73,27.69,42.21.8.38,1.62.73,2.44,1.05,18.72,7.39,36.65-1.59,47-17.74,3.1-4.85,5.77-9.95,8.91-14.77,1.66-2.54,3.77-4.93,6.58-6.06,5.58-2.26,12.71-.55,18.69-2.24,4.14-1.17,10.25-3.29,12.22-7.58,2.17-4.75-.61-4.89-4.59-4.65s-8.52-3.48-8.95-10.53S261.63,211.16,261.63,211.16Z" style="fill:#757575;stroke:#263238;stroke-linecap:round;stroke-linejoin:round"></path><path d="M258.75,212.23c.79-1.85-2.45-7.65-3.25-9.18-6.95-13.22-26.78-13.53-35.5-2-3.16,4.2-4.86,9.61-9,12.83-8.86,6.88-21.5-1.51-31-2.58-20.67-2.33-34.83,17.56-34.28,36.49.51,17.63,11.71,34.73,27.68,42.21.81.38,1.62.73,2.45,1.05,18.72,7.39,36.65-1.6,47-17.75,3.09-4.84,5.77-9.94,8.91-14.76,1.65-2.54,3.77-4.93,6.58-6.07,5.57-2.25,12.71-.54,18.68-2.23,4.15-1.17,10.26-3.29,12.22-7.58,2.18-4.75-.6-4.89-4.59-4.65s-8.52-3.48-8.94-10.53S258.75,212.24,258.75,212.23Z" style="fill:#757575"></path><g style="clip-path:url(#freepik--clip-path-2--inject-100)"><path d="M267.5,237c-4,.25-8.52-3.48-8.95-10.53s3.08-15.26,3.08-15.26c.79-1.86-2.45-7.65-3.26-9.19-5.63-10.72-19.73-12.95-29.51-7.25l-37.64,97.87c13.94.36,26.49-7.85,34.47-20.34,3.1-4.85,5.77-9.95,8.91-14.77,1.65-2.54,3.77-4.93,6.58-6.06,5.58-2.26,12.71-.55,18.69-2.24,4.14-1.17,10.25-3.29,12.22-7.58C274.26,236.85,271.48,236.71,267.5,237Z" style="fill:#fff;opacity:0.19"></path><path d="M194.2,201.38a22.09,22.09,0,0,1,5.75-2.32c-6.78-6.34-17.72-7-25.75-2.34l-37.65,97.87c9.52.24,18.39-3.51,25.6-9.89Z" style="fill:#fff;opacity:0.19"></path></g><path d="M258.75,212.23c.79-1.85-2.45-7.65-3.25-9.18-6.95-13.22-26.78-13.53-35.5-2-3.16,4.2-4.86,9.61-9,12.83-8.86,6.88-21.5-1.51-31-2.58-20.67-2.33-34.83,17.56-34.28,36.49.51,17.63,11.71,34.73,27.68,42.21.81.38,1.62.73,2.45,1.05,18.72,7.39,36.65-1.6,47-17.75,3.09-4.84,5.77-9.94,8.91-14.76,1.65-2.54,3.77-4.93,6.58-6.07,5.57-2.25,12.71-.54,18.68-2.23,4.15-1.17,10.26-3.29,12.22-7.58,2.18-4.75-.6-4.89-4.59-4.65s-8.52-3.48-8.94-10.53S258.75,212.24,258.75,212.23Z" style="fill:none;stroke:#263238;stroke-linecap:round;stroke-linejoin:round"></path><polygon points="242.99 217.49 247.54 228.38 358.84 171.3 354.95 162.92 242.99 217.49" style="fill:#263238;stroke:#263238;stroke-linecap:round;stroke-linejoin:round"></polygon><path d="M257,220.33S235.67,253.67,228.33,257s-12.32-7.53-7.83-14.77S257,220.33,257,220.33Z" style="fill:#fff;stroke:#263238;stroke-linecap:round;stroke-linejoin:round"></path><rect x="233.31" y="217.97" width="21.04" height="11.12" rx="2.25" transform="translate(338.44 -93.44) rotate(64.11)" style="fill:#fff;stroke:#263238;stroke-linecap:round;stroke-linejoin:round"></rect><rect x="208.1" y="232.23" width="21.04" height="11.12" rx="2.25" transform="translate(346.06 -59.02) rotate(65.83)" style="fill:#fff;stroke:#263238;stroke-linecap:round;stroke-linejoin:round"></rect><path d="M192.69,261.69l-10.37-21.88A1.34,1.34,0,0,1,183,238h0a1.35,1.35,0,0,1,1.81.63l10.37,21.88a1.36,1.36,0,0,1-.64,1.8h0A1.35,1.35,0,0,1,192.69,261.69Z" style="fill:#fff;stroke:#263238;stroke-linecap:round;stroke-linejoin:round"></path><path d="M182.58,240.68l-32.37,26.5a2.76,2.76,0,0,0-.72,3.39l2.14,4.26a2.77,2.77,0,0,0,3.53,1.32l37.31-15.34-1.4-2.48-24.24,4.36,17.25-18.51Z" style="fill:#fff;stroke:#263238;stroke-linecap:round;stroke-linejoin:round"></path><path d="M219.53,250.7a1.81,1.81,0,0,0-2.54.19,38.93,38.93,0,0,1-13.2,8.47,83,83,0,0,1-9.8,3.3c-.84.21-1.68.42-2.52.57-2,.36-5.26,1.15-5,3.76a2.7,2.7,0,0,0,5.35.25,69.86,69.86,0,0,0,13.48-4.17,37.74,37.74,0,0,0,14.45-9.83A1.8,1.8,0,0,0,219.53,250.7Z" style="fill:#fff;stroke:#263238;stroke-linecap:round;stroke-linejoin:round"></path><path d="M181.33,276a2.71,2.71,0,1,0-2.46,2.94A2.71,2.71,0,0,0,181.33,276Z" style="fill:#fff;stroke:#263238;stroke-linecap:round;stroke-linejoin:round"></path><path d="M201.59,278.85a2.71,2.71,0,1,0-2.45,2.94A2.71,2.71,0,0,0,201.59,278.85Z" style="fill:#fff;stroke:#263238;stroke-linecap:round;stroke-linejoin:round"></path><polygon points="282.95 198.02 281.77 198.59 286.12 208.44 287.29 207.84 282.95 198.02" style="fill:#fff;stroke:#263238;stroke-linecap:round;stroke-linejoin:round"></polygon><polygon points="290.9 194.14 289.73 194.71 294 204.38 295.17 203.78 290.9 194.14" style="fill:#fff;stroke:#263238;stroke-linecap:round;stroke-linejoin:round"></polygon><polygon points="272.63 203.05 271.45 203.62 275.92 213.7 277.08 213.1 272.63 203.05" style="fill:#fff;stroke:#263238;stroke-linecap:round;stroke-linejoin:round"></polygon><polygon points="298.86 190.26 297.69 190.83 301.88 200.33 303.04 199.73 298.86 190.26" style="fill:#fff;stroke:#263238;stroke-linecap:round;stroke-linejoin:round"></polygon><polygon points="262.9 207.79 261.72 208.36 266.29 218.66 267.46 218.06 262.9 207.79" style="fill:#fff;stroke:#263238;stroke-linecap:round;stroke-linejoin:round"></polygon><polygon points="255.5 224.21 256.67 223.61 251.99 213.11 250.81 213.68 255.5 224.21" style="fill:#fff;stroke:#263238;stroke-linecap:round;stroke-linejoin:round"></polygon><polygon points="306.82 186.38 305.64 186.95 309.75 196.27 310.92 195.67 306.82 186.38" style="fill:#fff;stroke:#263238;stroke-linecap:round;stroke-linejoin:round"></polygon><polygon points="346.62 166.98 345.44 167.55 349.51 176.1 350.67 175.5 346.62 166.98" style="fill:#fff;stroke:#263238;stroke-linecap:round;stroke-linejoin:round"></polygon><polygon points="330.7 174.74 329.52 175.31 333.76 184.22 334.92 183.62 330.7 174.74" style="fill:#fff;stroke:#263238;stroke-linecap:round;stroke-linejoin:round"></polygon><polygon points="338.66 170.86 337.48 171.43 341.63 180.16 342.8 179.56 338.66 170.86" style="fill:#fff;stroke:#263238;stroke-linecap:round;stroke-linejoin:round"></polygon><polygon points="314.78 182.5 313.6 183.07 318.01 192.33 319.17 191.73 314.78 182.5" style="fill:#fff;stroke:#263238;stroke-linecap:round;stroke-linejoin:round"></polygon><polygon points="322.75 178.62 321.57 179.2 325.88 188.27 327.05 187.67 322.75 178.62" style="fill:#fff;stroke:#263238;stroke-linecap:round;stroke-linejoin:round"></polygon><line x1="355.75" y1="163.28" x2="186.52" y2="247.42" style="fill:none;stroke:#fff;stroke-linecap:round;stroke-linejoin:round;stroke-width:0.5px"></line><line x1="356.7" y1="164.7" x2="187.47" y2="248.84" style="fill:none;stroke:#fff;stroke-linecap:round;stroke-linejoin:round;stroke-width:0.5px"></line><line x1="357.64" y1="166.13" x2="188.42" y2="250.27" style="fill:none;stroke:#fff;stroke-linecap:round;stroke-linejoin:round;stroke-width:0.5px"></line><line x1="358.59" y1="167.55" x2="189.37" y2="251.69" style="fill:none;stroke:#fff;stroke-linecap:round;stroke-linejoin:round;stroke-width:0.5px"></line><line x1="359.54" y1="168.97" x2="190.32" y2="253.11" style="fill:none;stroke:#fff;stroke-linecap:round;stroke-linejoin:round;stroke-width:0.5px"></line><line x1="360.49" y1="170.4" x2="191.27" y2="254.54" style="fill:none;stroke:#fff;stroke-linecap:round;stroke-linejoin:round;stroke-width:0.5px"></line><path d="M355,162.92l2.76-10.32s8.73,1.93,19.23-7.63a33.72,33.72,0,0,1,9.14,18.83s-14.87,3.36-17.8,10.92l-9.44-3.42Z" style="fill:#263238;stroke:#263238;stroke-linecap:round;stroke-linejoin:round"></path><path d="M364.77,158.5a1.54,1.54,0,1,0-1.35,1.7A1.54,1.54,0,0,0,364.77,158.5Z" style="fill:#fff;stroke:#263238;stroke-linecap:round;stroke-linejoin:round"></path><path d="M369.75,156.08a1.54,1.54,0,1,0-1.36,1.7A1.54,1.54,0,0,0,369.75,156.08Z" style="fill:#fff;stroke:#263238;stroke-linecap:round;stroke-linejoin:round"></path><path d="M374.73,153.65a1.54,1.54,0,1,0-1.36,1.7A1.54,1.54,0,0,0,374.73,153.65Z" style="fill:#fff;stroke:#263238;stroke-linecap:round;stroke-linejoin:round"></path><path d="M368.72,166.8a1.54,1.54,0,1,0-1.35,1.7A1.54,1.54,0,0,0,368.72,166.8Z" style="fill:#fff;stroke:#263238;stroke-linecap:round;stroke-linejoin:round"></path><path d="M373.7,164.38a1.54,1.54,0,1,0-1.36,1.7A1.54,1.54,0,0,0,373.7,164.38Z" style="fill:#fff;stroke:#263238;stroke-linecap:round;stroke-linejoin:round"></path><path d="M378.68,162a1.54,1.54,0,1,0-1.36,1.7A1.54,1.54,0,0,0,378.68,162Z" style="fill:#fff;stroke:#263238;stroke-linecap:round;stroke-linejoin:round"></path><path d="M332.28,185s-5.91-9-5.82-10c.41-4.16,7.07,5.52,8.6,7.06s1.23,3.38-.31,5.22-11.65,2.45-11.65,2.45Z" style="fill:#fff;stroke:#263238;stroke-linecap:round;stroke-linejoin:round"></path><path d="M336.07,182.42s-5.12-7.93-3.54-9.46c2.25-2.17,2.65,1.24,4.24,4.16s3.18,5.39,2.21,6.27C337.2,185,336.07,182.42,336.07,182.42Z" style="fill:#fff;stroke:#263238;stroke-linecap:round;stroke-linejoin:round"></path><path d="M339.25,180.39s-4.63-8.8-3.54-9.46,2.65,1.24,4.24,4.15,3.19,5.39,2.21,6.28C340.38,183,339.25,180.39,339.25,180.39Z" style="fill:#fff;stroke:#263238;stroke-linecap:round;stroke-linejoin:round"></path><path d="M343.31,181.62s-4.16-8.77-3.53-9.45c1.52-1.66,2.65,1.23,4.24,4.15s3.18,5.39,2.21,6.27C344.44,184.22,343.31,181.62,343.31,181.62Z" style="fill:#fff;stroke:#263238;stroke-linecap:round;stroke-linejoin:round"></path><path d="M178.66,132.49s-8.83,5.32-17.43,11.77-38.7,80.16-37.16,82.93,79.85,12.9,85.07,13.82,8,2.15,11.36,1.22,7.38-5.83,7.38-5.83,4-.61,4.6-2.76-1.23-2.15-3.38-3.08-3.68-4-5.22-5.52-8.9.3-11.67,1.53-7.37,3.38-9.83,3.69-16.58-1.54-28.87-8.3-16-8.9-17.81-10.44,27.64-47.91,27.64-47.91" style="fill:#FFDC8F;stroke:#263238;stroke-linecap:round;stroke-linejoin:round"></path><path d="M232.48,233.64c.62-2.15-1.23-2.15-3.38-3.08s-3.68-4-5.22-5.52-8.9.3-11.67,1.53-7.37,3.38-9.83,3.69-16.58-1.54-28.87-8.3-16-8.9-17.81-10.44c-.6-.5,2.14-5.77,6.09-12.64a79.63,79.63,0,0,1-24.65-7.77c-7.64,18.11-13.79,34.79-13.07,36.08,1.53,2.76,79.85,12.9,85.07,13.82s8,2.15,11.36,1.22,7.38-5.83,7.38-5.83S231.87,235.79,232.48,233.64Z" style="fill:#fff;stroke:#263238;stroke-linecap:round;stroke-linejoin:round"></path><path d="M155.7,211.52s-10.17-3.05-17.11,4.81" style="fill:none;stroke:#263238;stroke-linecap:round;stroke-linejoin:round"></path><path d="M135.64,194.69c8.26,3.68,19.91,5.36,25.13,6,1.69-3,3.66-6.34,5.73-9.79A92,92,0,0,1,140.18,184C138.63,187.6,137.1,191.19,135.64,194.69Z" style="fill:#263238;stroke:#263238;stroke-linecap:round;stroke-linejoin:round"></path></g></svg>