<svg xmlns="http://www.w3.org/2000/svg" viewBox="0 0 750 500"><g id="freepik--background-simple--inject-103"><path d="M654.93,140c-20-30.17-45-56.57-77.5-74.11-78.78-42.53-172.11-25.57-236.76,33.7-24.39,22.35-41.48,51.35-65,74.56-11.5,11.36-24.62,21.56-40,26.94-26.48,9.25-57.55.58-85.08,2.86-41.22,3.42-87.6,18.84-107.4,58C22.4,303,25.68,357.27,46.68,397.62c3.35,6.42,17,32.21,25.7,32.21H675.62c2.39,0,9.71-17.77,10.61-19.63a293.11,293.11,0,0,0,20.16-54.66c14.9-57.56-.84-117.43-25.83-169.76A378.76,378.76,0,0,0,654.93,140Z" style="fill:#FFE5AB"></path><path d="M654.93,140c-20-30.17-45-56.57-77.5-74.11-78.78-42.53-172.11-25.57-236.76,33.7-24.39,22.35-41.48,51.35-65,74.56-11.5,11.36-24.62,21.56-40,26.94-26.48,9.25-57.55.58-85.08,2.86-41.22,3.42-87.6,18.84-107.4,58C22.4,303,25.68,357.27,46.68,397.62c3.35,6.42,17,32.21,25.7,32.21H675.62c2.39,0,9.71-17.77,10.61-19.63a293.11,293.11,0,0,0,20.16-54.66c14.9-57.56-.84-117.43-25.83-169.76A378.76,378.76,0,0,0,654.93,140Z" style="fill:#fff;opacity:0.7000000000000001"></path></g><g id="freepik--Floor--inject-103"><line x1="102.54" y1="429.83" x2="694.77" y2="429.83" style="fill:none;stroke:#263238;stroke-miterlimit:10"></line><line x1="52.13" y1="429.83" x2="95.9" y2="429.83" style="fill:none;stroke:#263238;stroke-miterlimit:10"></line></g><g id="freepik--Pictures--inject-103"><g style="opacity:0.30000000000000004"><rect x="446.81" y="54.57" width="89.17" height="119.81" style="fill:none;stroke:#000;stroke-linejoin:round"></rect><rect x="464.75" y="78.67" width="53.3" height="71.62" style="fill:none;stroke:#000;stroke-linejoin:round"></rect></g><g style="opacity:0.30000000000000004"><rect x="560.78" y="66.91" width="53.32" height="71.64" style="fill:none;stroke:#000;stroke-linejoin:round"></rect><rect x="571.5" y="81.32" width="31.87" height="42.82" style="fill:none;stroke:#000;stroke-linejoin:round"></rect></g></g><g id="freepik--Window--inject-103"><path d="M339.3,46.46A4.58,4.58,0,0,0,335,49.58H110.74a4.59,4.59,0,1,0,0,2.94H335a4.58,4.58,0,1,0,4.33-6.06Z" style="opacity:0.2"></path><g style="opacity:0.2"><path d="M163.78,53.34c3.19,77.74,6,156.22,9.33,233.67l-.33,15.18s-14.37,0-21.93.76-19.29.76-27.61.76-12.86-3-12.86-3l.54-13.69c1.68-77.41,3.49-155.9,4.67-233.65" style="fill:none;stroke:#000;stroke-linejoin:round"></path><line x1="127.95" y1="274.16" x2="127.91" y2="283.32" style="fill:none;stroke:#000;stroke-linejoin:round"></line><line x1="128.73" y1="95.83" x2="127.99" y2="266.04" style="fill:none;stroke:#000;stroke-linejoin:round"></line><line x1="128.93" y1="51.62" x2="128.75" y2="90.75" style="fill:none;stroke:#000;stroke-linejoin:round"></line><line x1="141.82" y1="141.04" x2="140.1" y2="254.36" style="fill:none;stroke:#000;stroke-linejoin:round"></line><line x1="143.15" y1="52.64" x2="141.92" y2="133.95" style="fill:none;stroke:#000;stroke-linejoin:round"></line><line x1="153.85" y1="172.55" x2="154.33" y2="277.73" style="fill:none;stroke:#000;stroke-linejoin:round"></line><line x1="153.52" y1="97.86" x2="153.82" y2="163.91" style="fill:none;stroke:#000;stroke-linejoin:round"></line><line x1="153.32" y1="53.65" x2="153.48" y2="89.73" style="fill:none;stroke:#000;stroke-linejoin:round"></line></g><g style="opacity:0.2"><path d="M279.78,53.34c-3.07,82.31-7,165.45-9.93,247.32a138.15,138.15,0,0,0,16.09,1.48h32.12a92,92,0,0,0,14.87-1.54c-1.45-81.81-2.43-165-5-247.26" style="fill:none;stroke:#000;stroke-linejoin:round"></path><line x1="315.61" y1="274.16" x2="315.65" y2="283.32" style="fill:none;stroke:#000;stroke-linejoin:round"></line><line x1="314.83" y1="95.83" x2="315.57" y2="266.04" style="fill:none;stroke:#000;stroke-linejoin:round"></line><line x1="314.63" y1="51.62" x2="314.81" y2="90.75" style="fill:none;stroke:#000;stroke-linejoin:round"></line><line x1="301.74" y1="141.04" x2="303.46" y2="254.36" style="fill:none;stroke:#000;stroke-linejoin:round"></line><line x1="300.41" y1="52.64" x2="301.64" y2="133.95" style="fill:none;stroke:#000;stroke-linejoin:round"></line><line x1="289.71" y1="172.55" x2="289.23" y2="277.73" style="fill:none;stroke:#000;stroke-linejoin:round"></line><line x1="290.04" y1="97.86" x2="289.74" y2="163.91" style="fill:none;stroke:#000;stroke-linejoin:round"></line><line x1="290.24" y1="53.65" x2="290.08" y2="89.73" style="fill:none;stroke:#000;stroke-linejoin:round"></line></g><g style="opacity:0.2"><polyline points="165.21 75.43 187.77 75.43 187.77 101.76 166.71 101.76" style="fill:none;stroke:#000;stroke-linejoin:round"></polyline><rect x="191.71" y="75.5" width="23.59" height="26.41" style="fill:none;stroke:#000;stroke-linejoin:round"></rect></g><g style="opacity:0.2"><polyline points="278.66 75.43 256.09 75.43 256.09 101.76 277.16 101.76" style="fill:none;stroke:#000;stroke-linejoin:round"></polyline><rect x="228.57" y="75.5" width="23.59" height="26.41" transform="translate(480.73 177.41) rotate(180)" style="fill:none;stroke:#000;stroke-linejoin:round"></rect></g><polyline points="168.93 195.07 215.9 195.07 215.9 116.14 166.86 116.14" style="fill:none;stroke:#000;stroke-linejoin:round;opacity:0.2"></polyline><polyline points="276.28 115.47 228.28 115.47 228.28 195.07 272.67 195.07" style="fill:none;stroke:#000;stroke-linejoin:round;opacity:0.2"></polyline><polyline points="170.48 213.8 215.9 213.8 215.9 293.14 173.92 293.14" style="fill:none;stroke:#000;stroke-linejoin:round;opacity:0.2"></polyline><polyline points="273.19 213.13 228.28 213.13 228.28 293.88 269.22 293.88" style="fill:none;stroke:#000;stroke-linejoin:round;opacity:0.2"></polyline><line x1="173.71" y1="298.91" x2="269.85" y2="298.91" style="fill:none;stroke:#000;stroke-linejoin:round;opacity:0.2"></line><line x1="165.01" y1="66.3" x2="278.61" y2="66.3" style="fill:none;stroke:#000;stroke-linejoin:round;opacity:0.2"></line><line x1="222.08" y1="66.84" x2="222.08" y2="297.83" style="fill:none;stroke:#000;stroke-linejoin:round;opacity:0.2"></line><line x1="166.46" y1="110.03" x2="276.95" y2="110.03" style="fill:none;stroke:#000;stroke-linejoin:round;opacity:0.2"></line></g><g id="freepik--Plant--inject-103"><path d="M644.68,225.29s-11.73-6.51-12.59,8.25-3,158.15-3,158.15" style="fill:none;stroke:#263238;stroke-linecap:round;stroke-miterlimit:10"></path><path d="M626,234.84s9.56,68.69,5.22,155.55" style="fill:none;stroke:#263238;stroke-linecap:round;stroke-miterlimit:10"></path><path d="M635.39,228.26s-4.48,2.88-7-.41,1.73-9.32-2-11.89S616,217.31,616,217.31s5,1.47,4.85,4.21-2.58,3.77-2.9,2.58-2.71-7.23-6.78-4.72a10.09,10.09,0,0,0-4.69,6.39s9.47-1,10,2.56-3.89-.62-7.8-.85-7.48.34-7.22,2.71a31,31,0,0,1-.37,6.25,11.65,11.65,0,0,1,7.61-2.69c4.3.26,4.14,3,.23,2.76s-7.27,3.5-7.27,3.5,3.57,6.09,8.1,9.11,6.16,1.93,6.69-.39-.69-8.28,2.05-8.12-4.53,10.33-1,10.92,6.3-.41,7.22-2.71l.92-2.3s-1.21-6-.69-8.28,1.18.07,1.8,2.85,1,9.48,2.2,9.16,5-5.2,5.92-7.11-5-7.75-5-8.92,4.65,1.06,5.36,2.28a30,30,0,0,1,1.4,2.82s2.85-1.79,2.79-7.29S635.39,228.26,635.39,228.26Z" style="fill:#FFE5AB"></path><path d="M635.39,228.26s-4.48,2.88-7-.41,1.73-9.32-2-11.89S616,217.31,616,217.31s5,1.47,4.85,4.21-2.58,3.77-2.9,2.58-2.71-7.23-6.78-4.72a10.09,10.09,0,0,0-4.69,6.39s9.47-1,10,2.56-3.89-.62-7.8-.85-7.48.34-7.22,2.71a31,31,0,0,1-.37,6.25,11.65,11.65,0,0,1,7.61-2.69c4.3.26,4.14,3,.23,2.76s-7.27,3.5-7.27,3.5,3.57,6.09,8.1,9.11,6.16,1.93,6.69-.39-.69-8.28,2.05-8.12-4.53,10.33-1,10.92,6.3-.41,7.22-2.71l.92-2.3s-1.21-6-.69-8.28,1.18.07,1.8,2.85,1,9.48,2.2,9.16,5-5.2,5.92-7.11-5-7.75-5-8.92,4.65,1.06,5.36,2.28a30,30,0,0,1,1.4,2.82s2.85-1.79,2.79-7.29S635.39,228.26,635.39,228.26Z" style="fill:#263238;opacity:0.30000000000000004"></path><path d="M612.65,241.15c2.93-3.62,7.24-8.51,10.85-10.84" style="fill:none;stroke:#263238;stroke-linecap:round;stroke-miterlimit:10"></path><path d="M609.26,245.55s.75-1,2-2.61" style="fill:none;stroke:#263238;stroke-linecap:round;stroke-miterlimit:10"></path><path d="M625.41,231.2s4.35,6.15,5.15,12.47" style="fill:none;stroke:#263238;stroke-linecap:round;stroke-miterlimit:10"></path><path d="M620.49,234.84s1.22-.72.76,7.1" style="fill:none;stroke:#263238;stroke-linecap:round;stroke-miterlimit:10"></path><path d="M623.66,227.57s2.49-2.21,1.18-6.6" style="fill:none;stroke:#263238;stroke-linecap:round;stroke-miterlimit:10"></path><line x1="620.3" y1="231.3" x2="618.53" y2="228.05" style="fill:none;stroke:#263238;stroke-linecap:round;stroke-miterlimit:10"></line><path d="M616.58,234.61s-5.64-4.26-9.15-4.47" style="fill:none;stroke:#263238;stroke-linecap:round;stroke-miterlimit:10"></path><path d="M651.38,216.67s-.18,6.45-5.21,6.77-8.15-8.08-13.3-6.06-5.65,11.22-5.65,11.22,4.89-4,7.52-2,2,5.15.6,4.65-9.08-2.2-9.34,3.58a12.2,12.2,0,0,0,3.2,9.06s5.45-10.18,9.41-8.32-3.28,3.47-6.17,7.22-4.75,7.72-2.21,9.08a36.83,36.83,0,0,1,6,4.64,14.09,14.09,0,0,1,2.5-9.46c3.18-4.13,5.81-2.11,2.92,1.65s-1.46,9.66-1.46,9.66,8.54.59,14.64-1.89,6.14-4.86,4.17-7-8.76-4.95-6.73-7.59,7.25,11.58,10.23,8.49,3.88-6.59,2.21-9.08L663,238.84s-6.79-2.84-8.76-5,.87-1.13,4.08.14,10.18,5.45,10.67,4-1.78-8.57-3.08-10.77-11.2-.24-12.32-1.11,4.22-3.93,5.93-3.81a38.16,38.16,0,0,1,3.79.52s.15-4.07-5.4-7.75S651.38,216.67,651.38,216.67Z" style="fill:#FFE5AB"></path><path d="M651.38,216.67s-.18,6.45-5.21,6.77-8.15-8.08-13.3-6.06-5.65,11.22-5.65,11.22,4.89-4,7.52-2,2,5.15.6,4.65-9.08-2.2-9.34,3.58a12.2,12.2,0,0,0,3.2,9.06s5.45-10.18,9.41-8.32-3.28,3.47-6.17,7.22-4.75,7.72-2.21,9.08a36.83,36.83,0,0,1,6,4.64,14.09,14.09,0,0,1,2.5-9.46c3.18-4.13,5.81-2.11,2.92,1.65s-1.46,9.66-1.46,9.66,8.54.59,14.64-1.89,6.14-4.86,4.17-7-8.76-4.95-6.73-7.59,7.25,11.58,10.23,8.49,3.88-6.59,2.21-9.08L663,238.84s-6.79-2.84-8.76-5,.87-1.13,4.08.14,10.18,5.45,10.67,4-1.78-8.57-3.08-10.77-11.2-.24-12.32-1.11,4.22-3.93,5.93-3.81a38.16,38.16,0,0,1,3.79.52s.15-4.07-5.4-7.75S651.38,216.67,651.38,216.67Z" style="fill:#263238;opacity:0.2"></path><path d="M648.78,248.23c-1.62-5.4-3.58-13-3.46-18.26" style="fill:none;stroke:#263238;stroke-linecap:round;stroke-miterlimit:10"></path><path d="M650.88,254.62s-.53-1.46-1.27-3.75" style="fill:none;stroke:#263238;stroke-linecap:round;stroke-miterlimit:10"></path><path d="M647.52,228.67s9.11-.16,16,3.34" style="fill:none;stroke:#263238;stroke-linecap:round;stroke-miterlimit:10"></path><path d="M647.8,236.08s.12-1.71,7.63,4.08" style="fill:none;stroke:#263238;stroke-linecap:round;stroke-miterlimit:10"></path><path d="M642.69,228s-.52-4-5.81-5.68" style="fill:none;stroke:#263238;stroke-linecap:round;stroke-miterlimit:10"></path><line x1="644.13" y1="233.85" x2="639.68" y2="233.41" style="fill:none;stroke:#263238;stroke-linecap:round;stroke-miterlimit:10"></line><path d="M644.91,239.84s-8.1,2.74-10.71,6.12" style="fill:none;stroke:#263238;stroke-linecap:round;stroke-miterlimit:10"></path><path d="M597.34,259.6s28,22.78,25.19,129.92" style="fill:none;stroke:#263238;stroke-linecap:round;stroke-miterlimit:10"></path><path d="M628.93,255.12s-.81,7.43-6.65,7.32-8.64-10.09-14.77-8.25-7.58,12.41-7.58,12.41,6-4.17,8.87-1.58,1.84,6.13.25,5.43-10.27-3.41-11.12,3.24a14.18,14.18,0,0,0,2.84,10.76s7.25-11.23,11.64-8.72-4.1,3.69-7.8,7.76-6.21,8.45-3.4,10.27a43.1,43.1,0,0,1,6.5,5.91s-.29-6.21,3.77-10.68,6.91-1.88,3.21,2.19-2.59,11-2.59,11,9.79,1.49,17.07-.8,7.54-5,5.47-7.65-9.64-6.54-7-9.38,7.27,14,11,10.75,5.1-7.24,3.4-10.27l-1.7-3s-7.57-3.92-9.64-6.54,1.11-1.22,4.69.56,11.23,7.24,11.93,5.65-1.25-10.05-2.54-12.71-12.89-1.33-14.11-2.44,5.25-4.14,7.21-3.84,4.32,1,4.32,1,.55-4.69-5.5-9.46S628.93,255.12,628.93,255.12Z" style="fill:#FFE5AB"></path><path d="M628.93,255.12s-.81,7.43-6.65,7.32-8.64-10.09-14.77-8.25-7.58,12.41-7.58,12.41,6-4.17,8.87-1.58,1.84,6.13.25,5.43-10.27-3.41-11.12,3.24a14.18,14.18,0,0,0,2.84,10.76s7.25-11.23,11.64-8.72-4.1,3.69-7.8,7.76-6.21,8.45-3.4,10.27a43.1,43.1,0,0,1,6.5,5.91s-.29-6.21,3.77-10.68,6.91-1.88,3.21,2.19-2.59,11-2.59,11,9.79,1.49,17.07-.8,7.54-5,5.47-7.65-9.64-6.54-7-9.38,7.27,14,11,10.75,5.1-7.24,3.4-10.27l-1.7-3s-7.57-3.92-9.64-6.54,1.11-1.22,4.69.56,11.23,7.24,11.93,5.65-1.25-10.05-2.54-12.71-12.89-1.33-14.11-2.44,5.25-4.14,7.21-3.84,4.32,1,4.32,1,.55-4.69-5.5-9.46S628.93,255.12,628.93,255.12Z" style="fill:#263238;opacity:0.30000000000000004"></path><path d="M623,291.29c-1.37-6.38-2.91-15.39-2.27-21.39" style="fill:none;stroke:#263238;stroke-linecap:round;stroke-miterlimit:10"></path><path d="M624.78,298.86s-.48-1.73-1.11-4.44" style="fill:none;stroke:#263238;stroke-linecap:round;stroke-miterlimit:10"></path><path d="M623.35,268.61s10.53.67,18.14,5.36" style="fill:none;stroke:#263238;stroke-linecap:round;stroke-miterlimit:10"></path><path d="M623,277.18s.29-2,8.42,5.43" style="fill:none;stroke:#263238;stroke-linecap:round;stroke-miterlimit:10"></path><path d="M617.85,267.31s-.22-4.65-6.17-7.1" style="fill:none;stroke:#263238;stroke-linecap:round;stroke-miterlimit:10"></path><line x1="618.95" y1="274.26" x2="613.85" y2="273.33" style="fill:none;stroke:#263238;stroke-linecap:round;stroke-miterlimit:10"></line><path d="M619.28,281.24s-9.61,2.4-12.93,6.05" style="fill:none;stroke:#263238;stroke-linecap:round;stroke-miterlimit:10"></path><path d="M628.93,327.47s-.81,7.42-6.65,7.31-8.64-10.09-14.77-8.25-7.58,12.41-7.58,12.41,6-4.17,8.87-1.58,1.84,6.13.25,5.43-10.27-3.4-11.12,3.25a14.15,14.15,0,0,0,2.84,10.75s7.25-11.23,11.64-8.72-4.1,3.7-7.8,7.76-6.21,8.46-3.4,10.27a43.1,43.1,0,0,1,6.5,5.91s-.29-6.2,3.77-10.67,6.91-1.88,3.21,2.18-2.59,11-2.59,11,9.79,1.48,17.07-.81,7.54-5,5.47-7.64-9.64-6.55-7-9.39,7.27,14,11,10.76,5.1-7.24,3.4-10.27l-1.7-3s-7.57-3.92-9.64-6.55,1.11-1.22,4.69.56,11.23,7.25,11.93,5.66-1.25-10.05-2.54-12.71-12.89-1.34-14.11-2.45,5.25-4.13,7.21-3.84a43.21,43.21,0,0,1,4.32,1s.55-4.7-5.5-9.46S628.93,327.47,628.93,327.47Z" style="fill:#FFE5AB"></path><path d="M628.93,327.47s-.81,7.42-6.65,7.31-8.64-10.09-14.77-8.25-7.58,12.41-7.58,12.41,6-4.17,8.87-1.58,1.84,6.13.25,5.43-10.27-3.4-11.12,3.25a14.15,14.15,0,0,0,2.84,10.75s7.25-11.23,11.64-8.72-4.1,3.7-7.8,7.76-6.21,8.46-3.4,10.27a43.1,43.1,0,0,1,6.5,5.91s-.29-6.2,3.77-10.67,6.91-1.88,3.21,2.18-2.59,11-2.59,11,9.79,1.48,17.07-.81,7.54-5,5.47-7.64-9.64-6.55-7-9.39,7.27,14,11,10.76,5.1-7.24,3.4-10.27l-1.7-3s-7.57-3.92-9.64-6.55,1.11-1.22,4.69.56,11.23,7.25,11.93,5.66-1.25-10.05-2.54-12.71-12.89-1.34-14.11-2.45,5.25-4.13,7.21-3.84a43.21,43.21,0,0,1,4.32,1s.55-4.7-5.5-9.46S628.93,327.47,628.93,327.47Z" style="fill:#263238;opacity:0.30000000000000004"></path><path d="M623,363.63c-1.37-6.38-2.91-15.39-2.27-21.39" style="fill:none;stroke:#263238;stroke-linecap:round;stroke-miterlimit:10"></path><path d="M624.78,371.21s-.48-1.74-1.11-4.45" style="fill:none;stroke:#263238;stroke-linecap:round;stroke-miterlimit:10"></path><path d="M623.35,341s10.53.67,18.14,5.36" style="fill:none;stroke:#263238;stroke-linecap:round;stroke-miterlimit:10"></path><path d="M623,349.52s.29-2,8.42,5.43" style="fill:none;stroke:#263238;stroke-linecap:round;stroke-miterlimit:10"></path><path d="M617.85,339.65s-.22-4.65-6.17-7.09" style="fill:none;stroke:#263238;stroke-linecap:round;stroke-miterlimit:10"></path><line x1="618.95" y1="346.6" x2="613.85" y2="345.67" style="fill:none;stroke:#263238;stroke-linecap:round;stroke-miterlimit:10"></line><path d="M619.28,353.58s-9.61,2.4-12.93,6.06" style="fill:none;stroke:#263238;stroke-linecap:round;stroke-miterlimit:10"></path><path d="M607.33,311.28s16.5,60,18.24,78.67L622.1,280" style="fill:none;stroke:#263238;stroke-linecap:round;stroke-miterlimit:10"></path><path d="M647.29,302.16C625.57,298.25,625.57,390,625.57,390" style="fill:none;stroke:#263238;stroke-linecap:round;stroke-miterlimit:10"></path><path d="M628.18,389.52s-12.6-139,23.88-139" style="fill:none;stroke:#263238;stroke-linecap:round;stroke-miterlimit:10"></path><path d="M639,299.53c-3-3.34-9.27-3.34-13,5.19s-.37,7-.37,7,7.05-2.22,11.5-3.71,10.38-5.19,10.75-3-3,4.45-7,5.19S626,314,627.15,316.21s3.7,8.9,3.7,8.9a95.32,95.32,0,0,1,10-7.42c4.82-3,7.78-1.85,5.19,1.49s-10,7-8.53,11.49,10.38,10,10.38,10,1.11-9.27,3.71-12.24,2.59.38,1.85,5.57a60.5,60.5,0,0,0-.74,6.67l10.38,3.71a75.09,75.09,0,0,1,5.56-7.42l1.86-1.85s-8.16-7.05-8.53-11.5,5.56,0,7.41.75,4.82,5.93,4.82,5.93,1.86-8.53,2.23-11.5l.37-3s-7.79-3-10.75-3-4.45,2.23-4.45-.74,3-4.82,6.3-4.45a57.47,57.47,0,0,1,8.9,2.23s2.22-1.86,1.48-7.42-2.59-5.56-7-4.08-7.42,4.82-10.75,4.82-1.49-4.08.74-5.19,7.78-3.33,8.9-3.71-5.94-5.56-9.64-6.3-8.51,1.87-8.16,5.56C653.1,301.38,642,302.86,639,299.53Z" style="fill:#FFE5AB"></path><path d="M662.88,337.7c.11,1.12.19,2.24.23,3.35" style="fill:none;stroke:#263238;stroke-linecap:round;stroke-miterlimit:10"></path><path d="M655.43,311.08a98.33,98.33,0,0,1,7,23" style="fill:none;stroke:#263238;stroke-linecap:round;stroke-miterlimit:10"></path><path d="M654.1,308.11c-1.84-3.95-3.22-6.36-3.22-6.36a11,11,0,0,0,4.82-4.45,12.31,12.31,0,0,1,3.7-4.45" style="fill:none;stroke:#263238;stroke-linecap:round;stroke-miterlimit:10"></path><path d="M637.9,314.36s13.35-5.57,13.35-4.45" style="fill:none;stroke:#263238;stroke-linecap:round;stroke-miterlimit:10"></path><path d="M658.66,307.31s5.93-3,11.13-3" style="fill:none;stroke:#263238;stroke-linecap:round;stroke-miterlimit:10"></path><path d="M656.44,316.21a51.05,51.05,0,0,0-7.05,7,32.18,32.18,0,0,0-5.19,8.53" style="fill:none;stroke:#263238;stroke-linecap:round;stroke-miterlimit:10"></path><path d="M660.52,317.69s7.78-2.22,11.86,1.49" style="fill:none;stroke:#263238;stroke-linecap:round;stroke-miterlimit:10"></path><path d="M674.62,267.59c-4-2.38-8.5-2.44-10.69-5s2.11-3.79,4.41-2.84,7.62,3.69,8.63,4.29.31-8.12-1.56-11.41-7-5.2-9.55-2.51c-5.39,5.66-13.8-1.77-13.23-6.19s-3.55-9.19-12.42-6.4-5.57,4.34-5.57,4.34,6.3,3.86,10.34,6.25,10.72,4.43,9.29,6.17-5.31.68-8.54-1.92-12.52-8.76-13.47-6.47-4.29,8.64-4.29,8.64a93.67,93.67,0,0,1,12.16,2.7c5.4,1.69,6.5,4.66,2.28,4.89s-11.88-2.94-14.27,1.09-.75,14.4-.75,14.4,7.73-5.23,11.67-5.22,1.42,2.21-3,5.05a60.88,60.88,0,0,0-5.52,3.81l4,10.27a75.1,75.1,0,0,1,9.25-.66l2.62.19s0-10.78,3.08-14,3.65,4.2,4.31,6.09-1.32,7.53-1.32,7.53,7.65-4.19,10.13-5.86l2.49-1.66s-2.87-7.83-4.81-10.07-4.6-1.9-2.36-3.84,5.58-.92,7.49,1.84a57.7,57.7,0,0,1,4.16,8.18s2.85.46,6.57-3.74S678.66,270,674.62,267.59Zm-35.09,11.87c-3-1.48,4.08-4.45,4.08-4.45C646.21,274.64,642.5,281,639.53,279.46Zm5-13.84c-1.27-.63,2.52-1.9,2.52-1.9C652.53,264.78,645.79,266.25,644.53,265.62Z" style="fill:#FFE5AB"></path><path d="M639.45,287c-.77.81-1.56,1.6-2.38,2.37" style="fill:none;stroke:#263238;stroke-linecap:round;stroke-miterlimit:10"></path><path d="M654.67,263.94a98.06,98.06,0,0,1-12.78,20.33" style="fill:none;stroke:#263238;stroke-linecap:round;stroke-miterlimit:10"></path><path d="M656,261c1.78-4,2.69-6.6,2.69-6.6a11,11,0,0,0,6.52.73A12.29,12.29,0,0,1,671,255" style="fill:none;stroke:#263238;stroke-linecap:round;stroke-miterlimit:10"></path><path d="M640.7,252.85s12.95,6.43,12.11,7.16" style="fill:none;stroke:#263238;stroke-linecap:round;stroke-miterlimit:10"></path><path d="M659.64,263.91s6.12,2.53,9.53,6.45" style="fill:none;stroke:#263238;stroke-linecap:round;stroke-miterlimit:10"></path><path d="M651.46,268.06a51.17,51.17,0,0,0-9.94-.7,32,32,0,0,0-9.84,1.67" style="fill:none;stroke:#263238;stroke-linecap:round;stroke-miterlimit:10"></path><path d="M653,272.11s6.79,4.43,6.66,9.94" style="fill:none;stroke:#263238;stroke-linecap:round;stroke-miterlimit:10"></path><path d="M617,319c-3.25-1.92-6.84-2-8.61-4s1.7-3.06,3.55-2.29,6.14,3,6.95,3.45.25-6.54-1.26-9.18-5.62-4.19-7.68-2c-4.34,4.55-11.11-1.42-10.65-5s-2.86-7.39-10-5.14-4.47,3.49-4.47,3.49,5.06,3.1,8.31,5,8.63,3.57,7.48,5-4.27.54-6.87-1.55-10.08-7.05-10.85-5.2-3.45,6.94-3.45,6.94a76.44,76.44,0,0,1,9.79,2.17c4.35,1.37,5.24,3.76,1.84,3.94s-9.56-2.37-11.49.88-.6,11.59-.6,11.59,6.22-4.21,9.39-4.2,1.14,1.77-2.4,4.06a48.92,48.92,0,0,0-4.45,3.07l3.22,8.27a60.86,60.86,0,0,1,7.44-.54l2.11.15s0-8.67,2.49-11.24,2.93,3.38,3.46,4.89-1.07,6.06-1.07,6.06,6.16-3.37,8.16-4.71l2-1.34s-2.3-6.29-3.87-8.1-3.7-1.53-1.9-3.09,4.5-.74,6,1.48a46.17,46.17,0,0,1,3.35,6.58s2.3.38,5.28-3S620.26,320.89,617,319Zm-28.24,9.55c-2.39-1.19,3.28-3.58,3.28-3.58C594.14,324.64,591.16,329.71,588.77,328.52Zm4-11.14c-1-.51,2-1.53,2-1.53C599.23,316.7,593.81,317.89,592.79,317.38Z" style="fill:#FFE5AB"></path><path d="M588.71,334.6c-.62.65-1.26,1.29-1.92,1.91" style="fill:none;stroke:#263238;stroke-linecap:round;stroke-miterlimit:10"></path><path d="M601,316a79,79,0,0,1-10.28,16.36" style="fill:none;stroke:#263238;stroke-linecap:round;stroke-miterlimit:10"></path><path d="M602.06,313.65c1.43-3.2,2.16-5.31,2.16-5.31a8.87,8.87,0,0,0,5.25.58,10,10,0,0,1,4.66-.09" style="fill:none;stroke:#263238;stroke-linecap:round;stroke-miterlimit:10"></path><path d="M589.71,307.1s10.43,5.18,9.75,5.77" style="fill:none;stroke:#263238;stroke-linecap:round;stroke-miterlimit:10"></path><path d="M605,316s4.93,2,7.67,5.2" style="fill:none;stroke:#263238;stroke-linecap:round;stroke-miterlimit:10"></path><path d="M598.37,319.35a41.45,41.45,0,0,0-8-.57,25.8,25.8,0,0,0-7.92,1.35" style="fill:none;stroke:#263238;stroke-linecap:round;stroke-miterlimit:10"></path><path d="M599.62,322.61s5.46,3.55,5.36,8" style="fill:none;stroke:#263238;stroke-linecap:round;stroke-miterlimit:10"></path><path d="M648.43,359c-3.24-1.92-6.84-2-8.6-4s1.7-3.05,3.55-2.28,6.13,3,7,3.45.25-6.54-1.26-9.19-5.63-4.18-7.68-2c-4.34,4.56-11.11-1.42-10.65-5s-2.86-7.39-10-5.15-4.48,3.49-4.48,3.49,5.07,3.11,8.32,5,8.63,3.57,7.48,5-4.27.55-6.88-1.54-10.07-7.06-10.84-5.21-3.45,6.95-3.45,6.95a76.82,76.82,0,0,1,9.79,2.17c4.34,1.36,5.23,3.75,1.84,3.94s-9.57-2.37-11.49.88-.6,11.59-.6,11.59,6.22-4.22,9.39-4.2,1.14,1.77-2.4,4.06A48.92,48.92,0,0,0,613,370l3.22,8.26a59.39,59.39,0,0,1,7.44-.53l2.11.15s0-8.67,2.48-11.25,2.94,3.38,3.46,4.9-1.06,6.06-1.06,6.06,6.16-3.37,8.16-4.71l2-1.34s-2.31-6.3-3.87-8.1-3.7-1.53-1.9-3.1,4.5-.74,6,1.49a45.7,45.7,0,0,1,3.34,6.58s2.3.37,5.29-3S651.68,360.92,648.43,359Zm-28.23,9.56c-2.39-1.2,3.28-3.59,3.28-3.59C625.57,364.67,622.58,369.74,620.2,368.55Zm4-11.14c-1-.51,2-1.53,2-1.53C630.66,356.73,625.23,357.91,624.22,357.41Z" style="fill:#FFE5AB"></path><path d="M620.13,374.62c-.62.66-1.25,1.3-1.91,1.91" style="fill:none;stroke:#263238;stroke-linecap:round;stroke-miterlimit:10"></path><path d="M632.38,356.05a79.09,79.09,0,0,1-10.28,16.37" style="fill:none;stroke:#263238;stroke-linecap:round;stroke-miterlimit:10"></path><path d="M633.48,353.67c1.43-3.2,2.17-5.31,2.17-5.31a8.76,8.76,0,0,0,5.24.58,10,10,0,0,1,4.66-.09" style="fill:none;stroke:#263238;stroke-linecap:round;stroke-miterlimit:10"></path><path d="M621.14,347.13s10.42,5.17,9.75,5.76" style="fill:none;stroke:#263238;stroke-linecap:round;stroke-miterlimit:10"></path><path d="M636.38,356s4.93,2,7.67,5.19" style="fill:none;stroke:#263238;stroke-linecap:round;stroke-miterlimit:10"></path><path d="M629.79,359.37a40.87,40.87,0,0,0-8-.56,25.63,25.63,0,0,0-7.92,1.34" style="fill:none;stroke:#263238;stroke-linecap:round;stroke-miterlimit:10"></path><path d="M631.05,362.63s5.45,3.56,5.35,8" style="fill:none;stroke:#263238;stroke-linecap:round;stroke-miterlimit:10"></path><path d="M603.76,257.74s-4.08,3-6.67,0,1.11-8.89-2.6-11.12-9.64,1.85-9.64,1.85,4.82,1.12,4.82,3.71-2.22,3.71-2.59,2.6-3-6.68-6.68-4.08a9.53,9.53,0,0,0-4.08,6.3s8.9-1.48,9.64,1.86-3.7-.37-7.41-.37-7,.74-6.68,3a28.48,28.48,0,0,1,0,5.93,11,11,0,0,1,7-3c4.08,0,4.08,2.59.37,2.59s-6.67,3.71-6.67,3.71,3.7,5.56,8.15,8.16,5.94,1.48,6.31-.74-1.12-7.79,1.48-7.79-3.71,10-.37,10.38,5.93-.74,6.67-3l.74-2.23s-1.48-5.56-1.11-7.79,1.11,0,1.86,2.6,1.48,8.9,2.59,8.53,4.45-5.19,5.19-7.05-5.19-7-5.19-8.15,4.45.74,5.19,1.85a28.23,28.23,0,0,1,1.48,2.6s2.6-1.86,2.23-7.05S603.76,257.74,603.76,257.74Z" style="fill:#FFE5AB"></path><path d="M583,271.19c2.56-3.58,6.36-8.44,9.65-10.85" style="fill:none;stroke:#263238;stroke-linecap:round;stroke-miterlimit:10"></path><path d="M580,275.54s.65-1,1.72-2.57" style="fill:none;stroke:#263238;stroke-linecap:round;stroke-miterlimit:10"></path><path d="M594.49,261.08s4.45,5.56,5.56,11.49" style="fill:none;stroke:#263238;stroke-linecap:round;stroke-miterlimit:10"></path><path d="M590,264.79s1.11-.74,1.11,6.67" style="fill:none;stroke:#263238;stroke-linecap:round;stroke-miterlimit:10"></path><path d="M592.64,257.74s2.22-2.22.74-6.3" style="fill:none;stroke:#263238;stroke-linecap:round;stroke-miterlimit:10"></path><line x1="589.67" y1="261.45" x2="587.82" y2="258.49" style="fill:none;stroke:#263238;stroke-linecap:round;stroke-miterlimit:10"></line><path d="M586.33,264.79s-5.56-3.71-8.89-3.71" style="fill:none;stroke:#263238;stroke-linecap:round;stroke-miterlimit:10"></path><rect x="612.54" y="388.57" width="28.66" height="41.26" style="fill:#263238;stroke:#263238;stroke-linecap:round;stroke-miterlimit:10;stroke-width:2px"></rect></g><g id="freepik--Air--inject-103"><path d="M375.45,185.85c2.82-2,5.65-4,11.31-4" style="fill:none;stroke:#263238;stroke-miterlimit:10"></path><path d="M311.48,188.29a16.31,16.31,0,0,0,7.39,1.56c11.31,0,11.31-8,22.63-8s11.31,8,22.63,8a16.05,16.05,0,0,0,8.73-2.28" style="fill:none;stroke:#263238;stroke-miterlimit:10"></path><path d="M296.24,181.85c5.68,0,8.51,2,11.35,4" style="fill:none;stroke:#263238;stroke-miterlimit:10"></path><path d="M330.18,199.15c2.83-2,5.66-4,11.32-4,11.31,0,11.31,8,22.63,8s11.32-8,22.63-8" style="fill:none;stroke:#263238;stroke-miterlimit:10"></path><path d="M296.24,195.15c11.32,0,11.32,8,22.63,8a16.09,16.09,0,0,0,8.44-2.11" style="fill:none;stroke:#263238;stroke-miterlimit:10"></path><path d="M356.56,216.09a16.32,16.32,0,0,0,7.57,1.64c11.32,0,11.32-8,22.63-8" style="fill:none;stroke:#263238;stroke-miterlimit:10"></path><path d="M296.24,209.73c11.32,0,11.32,8,22.63,8s11.31-8,22.63-8c5.5,0,8.33,1.89,11.08,3.84" style="fill:none;stroke:#263238;stroke-miterlimit:10"></path></g><g id="freepik--Fan--inject-103"><rect x="234.6" y="307.08" width="4.72" height="116.82" style="fill:#fff;stroke:#263238;stroke-miterlimit:10"></rect><circle cx="236.96" cy="191.58" r="47.44" style="fill:#fff;stroke:#263238;stroke-miterlimit:10"></circle><g style="opacity:0.2"><path d="M234,192.55s-7.15,18.45-24.13,17.84.15,15.77,16.62,17.19,19.24-28.76,16.05-35.26S234,192.55,234,192.55Z"></path><path d="M240.22,193.91s19.48-3.47,27.77,11.35,13.41-8.31,6.07-23.12-34.57-1.52-38.46,4.58S240.22,193.91,240.22,193.91Z"></path><path d="M236.22,190s-13.74-14.25-6-29.39-14.37-6.5-22.59,7.84,18,29.56,25.23,29.39S236.22,190,236.22,190Z"></path></g><g style="opacity:0.2"><path d="M245.58,194.12s19.44-3.7,27.9,11,13.31-8.46,5.8-23.19-34.59-1.11-38.41,5S245.58,194.12,245.58,194.12Z"></path><path d="M243.43,188.11s-13.26-14.7-5.06-29.58-14.14-7-22.83,7.08,17,30.14,24.24,30.22S243.43,188.11,243.43,188.11Z"></path><path d="M242.19,193.59s-4.82,19.2-21.75,20.68,2.09,15.63,18.61,15,15.55-30.91,11.59-37S242.19,193.59,242.19,193.59Z"></path></g><path d="M234.55,189.57s-19.42,3.79-28-10.9-13.27,8.53-5.69,23.22,34.59.94,38.38-5.22S234.55,189.57,234.55,189.57Z" style="fill:#263238"></path><path d="M236.73,195.57s13.32,14.64,5.2,29.56,14.17,6.91,22.79-7.2-17.14-30.05-24.38-30.1S236.73,195.57,236.73,195.57Z" style="fill:#263238"></path><path d="M237.94,190.08s4.74-19.22,21.65-20.78-2.15-15.62-18.67-14.92-15.41,31-11.42,37S237.94,190.08,237.94,190.08Z" style="fill:#263238"></path><circle cx="237.51" cy="191.35" r="11.54" style="fill:#fff;stroke:#263238;stroke-miterlimit:10"></circle><polygon points="240.18 313.94 233.75 313.94 230.53 275.76 230.53 238.44 243.4 238.44 243.4 276.19 240.18 313.94" style="fill:#263238"></polygon><path d="M268.28,422.05H254.59a7.72,7.72,0,0,0-7.41-5.58H226.75a7.72,7.72,0,0,0-7.41,5.58H205.65a7.71,7.71,0,0,0-7.72,7.72H276A7.72,7.72,0,0,0,268.28,422.05Z" style="fill:#263238"></path><circle cx="236.96" cy="256.88" r="3.43" style="fill:#FFE5AB;stroke:#263238;stroke-miterlimit:10"></circle><circle cx="236.96" cy="270.61" r="3.43" style="fill:#FFE5AB;stroke:#263238;stroke-miterlimit:10"></circle><circle cx="236.96" cy="284.34" r="3.43" style="fill:#FFE5AB;stroke:#263238;stroke-miterlimit:10"></circle></g><g id="freepik--Character--inject-103"><path d="M560.69,227.22l-98.9.5-9,202H560.26l7.54-191.42C568,232.2,564.86,227.22,560.69,227.22Z" style="fill:#FFE5AB;stroke:#263238;stroke-miterlimit:10"></path><path d="M535.08,227.22l-86.57.44a13,13,0,0,0-12.88,12.39l-8.44,189.72H534.64l7.54-191.42C542.43,232.2,539.24,227.22,535.08,227.22Z" style="fill:#FFE5AB;stroke:#263238;stroke-miterlimit:10"></path><path d="M443.57,292.45H429.83a7.61,7.61,0,0,0-2.25.34H344.7l-1,137H451.12V300A7.54,7.54,0,0,0,443.57,292.45Z" style="fill:#FFE5AB;stroke:#263238;stroke-miterlimit:10"></path><path d="M328.56,292.45H342.3a7.55,7.55,0,0,1,7.55,7.55V429.77a0,0,0,0,1,0,0H321a0,0,0,0,1,0,0V300A7.55,7.55,0,0,1,328.56,292.45Z" style="fill:#FFE5AB;stroke:#263238;stroke-miterlimit:10"></path><path d="M424.94,250.85s3.06-3.58,3.31-6.77-1.65-10.58-.63-13.9,4.46-5.23,3.19-7.65-4-1-5.87,2.16-1.79,6.25-2.17,9.32a5.45,5.45,0,0,1-7.53,4c-3.31-1.53-7.65-4.08-7.65-4.08s-1.53,5-1.53,7,1.4,7,2.8,10.2a39.67,39.67,0,0,1,2.17,6.76s-3.06,25.52-3.44,30.75a108.8,108.8,0,0,1-1.53,11.1s5.1,3.82,8.42.63,13.39-26,13.39-26Z" style="fill:#fff;stroke:#263238;stroke-miterlimit:10"></path><polygon points="422.33 249.14 407.44 249.14 404 215.73 425.77 215.73 422.33 249.14" style="fill:#fff;stroke:#263238;stroke-miterlimit:10"></polygon><polygon points="406.25 223.8 408.6 246.55 421.18 246.55 423.52 223.8 406.25 223.8" style="fill:#FFE5AB;stroke:#263238;stroke-miterlimit:10"></polygon><path d="M402.57,232.14a3.91,3.91,0,0,1-.58-4.6c1.44-2.59,10.35-7.76,9.78-4.31S402.57,232.14,402.57,232.14Z" style="fill:#fff;stroke:#263238;stroke-miterlimit:10"></path><path d="M404.07,236.49a3.91,3.91,0,0,1-.58-4.6c1.44-2.59,10.35-7.76,9.78-4.31S404.07,236.49,404.07,236.49Z" style="fill:#fff;stroke:#263238;stroke-miterlimit:10"></path><path d="M404.67,240.39a3.34,3.34,0,0,1-.5-3.95c1.26-2.22,9-6.67,8.51-3.71S404.67,240.39,404.67,240.39Z" style="fill:#fff;stroke:#263238;stroke-miterlimit:10"></path><path d="M406.27,243.68a3.6,3.6,0,0,1-.44-3.94c1.12-2.23,8.05-6.67,7.61-3.71S406.27,243.68,406.27,243.68Z" style="fill:#fff;stroke:#263238;stroke-miterlimit:10"></path><rect x="350.88" y="351.1" width="67.97" height="34.33" style="fill:#FFE5AB;stroke:#263238;stroke-miterlimit:10"></rect><rect x="350.88" y="385.48" width="67.97" height="44.29" style="fill:#FFE5AB;stroke:#263238;stroke-miterlimit:10"></rect><path d="M334.74,399.56s-1.72,7.21-4.46,11.67-9.27,13-15.11,15.79,5.15,7.55,12.7,7.21,14.42-1.37,22.66-9.27,17.17-7.55,17.85-13-6.52-14.42-6.52-14.42Z" style="fill:#fff;stroke:#263238;stroke-miterlimit:10"></path><path d="M327.87,434.23c7.56-.34,14.42-1.37,22.66-9.27s17.17-7.55,17.85-13a10.27,10.27,0,0,0-.76-4.66,37.24,37.24,0,0,0-11.59,6c-7.9,5.83-11.68,13.39-25.07,16.48S315.17,427,315.17,427C309.34,429.77,320.32,434.57,327.87,434.23Z" style="fill:#fff;stroke:#263238;stroke-miterlimit:10"></path><path d="M406.06,299.71s-19.14-8.64-45.57-9.67-53.21,2.06-53.9,8.93,20.25,79,22.31,84.79,4.81,8.24,3.44,10.3-3.78,3.44-2.75,5.15-1.72.35,1,1.72,25.06,1.72,25.06,1.72,6.18,0,6.87-1.72.68-5.49,0-8.93-3.78-3.77-2.75-7.21-4.12-18.53-4.46-20.59-9.61-38.45-9.61-38.45,49.78,10.64,61.45,14.76,42.22,4.46,46.34,1,5.5-8.58,5.15-10.3-41.54-26.78-41.54-26.78Z" style="fill:#263238;stroke:#263238;stroke-miterlimit:10"></path><path d="M276,405.05s-16.83-3.09-22.32-7.21-11-11.67-13.39-8.24-2.4,15.11,5.49,27.46,22.32,21.29,24.72,19.92,17.85-12,17.85-12Z" style="fill:#fff;stroke:#263238;stroke-miterlimit:10"></path><path d="M245.82,417.06c7.9,12.36,22.32,21.29,24.72,19.92.41-.23,1.18-.73,2.19-1.39-7.83-5.71-23.82-17.85-26.91-24-4.12-8.24-5.49-22-5.49-22C237.93,393,237.93,404.71,245.82,417.06Z" style="fill:#fff;stroke:#263238;stroke-miterlimit:10"></path><path d="M405.46,310S337.14,326.43,333,331.24s-33.64,48.4-37.42,54.24-8.58,11-10.3,12-2.06-.69-4.12.68-7.55,5.84-7.55,5.84,3.78,15.79,8.93,19.91,5.83,4.81,8.24,3.43,4.12-1.71,5.49-4.12-1-3.77,1.72-5.49,15.79-11,15.79-11,28.84-19.57,39.14-30.56A94.28,94.28,0,0,0,368,355.27s53.9-.69,66.95-1.37,26.09-2.06,30.55-6.87a35.21,35.21,0,0,0,6.52-10.3l-49.43-28.49" style="fill:#263238;stroke:#263238;stroke-miterlimit:10"></path><path d="M323.86,343.41s8.13-13.56,15.72-17.9,61.82-13,61.82-13" style="fill:none;stroke:#6b6b6b;stroke-miterlimit:10"></path><path d="M469.56,220.87s-12.72.24-20.06,6.85-19.32,37.67-23,42.81-16.64,25.2-17.37,25.69-6.36.49-6.36.49-3.43.73,11.74,12,34.25,29.12,45,31.07,9.3,5.63,13.7-.49,19.33-36.94,24.47-49.41,18.84-40.37,20.79-49.91,3.18-12-4.16-16.15c-2.48-1.41-14.83-8.17-18.51-8.79-7.2-1.2-5.95,4.63-5.95,4.63Z" style="fill:#b2b2b2;stroke:#263238;stroke-miterlimit:10"></path><path d="M489.87,219.64c5.1,1.54,8.95,2.76,10.9,7.05s-3.9,11.33-3.9,11.33-9,12.1-12.5,17.57-15.61,3.12-21.47,2.34-12.49,7-18,1.17.78-9.37,4.29-14.06-.39-3.51,0-7.8,5.08-5.47,12.56-9.52,3.84-5.71,3.84-5.71C468.37,220.45,484.76,218.1,489.87,219.64Zm16.76,23.06c-1.56.78-9,5.47-9.76,10.93s3.51,5.86,0,11.33-5.47,7.81-2.73,12.88,9.37-2.73,18.35-12.88,11.71-13.67,7.8-19.13S506.63,242.7,506.63,242.7Z" style="opacity:0.2"></path><path d="M483.21,245.15c-2.48,2.84-4.35,4.83-4.35,4.83" style="fill:none;stroke:#263238;stroke-miterlimit:10"></path><path d="M497,221.6s.49,1.22-2.69,8.32c-1.53,3.43-5.19,8.23-8.55,12.28" style="fill:none;stroke:#263238;stroke-miterlimit:10"></path><path d="M471.77,248s-12,8.56-16.88,10.77" style="fill:none;stroke:#263238;stroke-miterlimit:10"></path><path d="M487.33,230.58s11.32-6.23,12.73-10.47-7.92-4.53-9.9-3.12S487.33,230.58,487.33,230.58Z" style="fill:#263238;stroke:#263238;stroke-miterlimit:10"></path><path d="M474.46,159.46s-8.32,7.1-9.06,10.28-.24,6.11-2.93,8.8-9.79,4.65-9.3,6.85,3.43,5.38,3.43,5.38,0,17.13.49,19.09,12.47,2.2,12.47,2.2l-1,11S449,243.13,456.35,247.29s17.62-5.14,27.16-13.7,10.27-8.32,11.25-11.26-.24-2.2.49-4.89,0-4.89,2.69-10,4.65-3.18,6.36-13.94-1.95-19.58-8.31-27.16-5.88-8.56-11.26-9.05A20.18,20.18,0,0,0,474.46,159.46Z" style="fill:#fff;stroke:#263238;stroke-miterlimit:10"></path><path d="M466.87,179.28s3.43,2.44,6.36.73" style="fill:none;stroke:#263238;stroke-miterlimit:10"></path><path d="M468.34,171.94s5.63-3.92,7.83,2.93" style="fill:none;stroke:#263238;stroke-miterlimit:10"></path><path d="M458.8,193.71s8.07,2.45,13.21-3.42" style="fill:none;stroke:#263238;stroke-miterlimit:10"></path><polygon points="469.56 212.06 480.82 211.32 469.56 220.87 469.56 212.06" style="fill:#263238;stroke:#263238;stroke-miterlimit:10"></polygon><path d="M477.64,147.23s-5.63,2.2-5.14-1a7.93,7.93,0,0,1,2.2-4.65s-8.32,1-8.32,8.32,1.47,9.3,8.08,9.54a41.3,41.3,0,0,0,9.78-.49s-3.91,2.45-2.93,5.87a32.28,32.28,0,0,0,1.71,4.9l3.67-3.92s-3.18,5.14-1.22,8.56,2.69,5.88,1.46,8.08l-1.22,2.2,4.89,2.2-3.67,2,8.57.49s4.64-4.9,5.87.24a10.21,10.21,0,0,1-3.92,11,25.06,25.06,0,0,1-4.89,2.45s-.49,1.47.49,4.4a4.89,4.89,0,0,0,3.18,3.43l1.71-3.43,1.23,4.4a10.55,10.55,0,0,1,2.2-4.4c1.71-2,2.69-2.2,6.6-3.67s12.92-3.72,17.08-11.3.78-21.24-1.66-31.51-16.21-13.79-21.6-15-8.74,1.8-10.7-1.14,1.71-5.87,1.71-5.87-6.85-1.47-11,2.45S477.64,147.23,477.64,147.23Z" style="fill:#263238;stroke:#263238;stroke-miterlimit:10"></path><path d="M531.46,292.45H517.72a7.63,7.63,0,0,0-2.26.34H432.58l-1,137H539V300A7.54,7.54,0,0,0,531.46,292.45Z" style="fill:#FFE5AB;stroke:#263238;stroke-miterlimit:10"></path><path d="M416.44,292.45h13.74a7.55,7.55,0,0,1,7.55,7.55V429.77a0,0,0,0,1,0,0H408.89a0,0,0,0,1,0,0V300A7.55,7.55,0,0,1,416.44,292.45Z" style="fill:#FFE5AB;stroke:#263238;stroke-miterlimit:10"></path><path d="M507.48,280.94l-1.25,10.13s-23.73-3.42-34.5-5.63-17.12-2.93-19.08-1.95-14.92,9.29-14.92,9.29h16.88s23.48,13.46,39.87,18.6,26.91,5.62,28.14,5.13,2.93-7.34,2.93-7.34l4.69-25.29Z" style="fill:#fff;stroke:#263238;stroke-miterlimit:10"></path><path d="M506.23,291.07s13.45,2.2,16.14,8.32" style="fill:none;stroke:#263238;stroke-miterlimit:10"></path><path d="M506.5,236.77s-3.91,7.83-3.91,14.68,2,31.56,2,31.56,13.44,1.64,18.29,2.61c3.84.77,22.22-7.78,22.22-7.78s-14.58-36.67-18.25-43.52-8.81-15.9-20.31-12.48" style="fill:#b2b2b2;stroke:#263238;stroke-miterlimit:10"></path><path d="M527.67,277.34a28.91,28.91,0,0,0,5.22,1.63" style="fill:#b2b2b2;stroke:#263238;stroke-miterlimit:10"></path><path d="M504.59,253.22c.57.85,1.7,7.36,8.21,14.72,3.28,3.71,8.15,6.48,12.27,8.32" style="fill:#b2b2b2;stroke:#263238;stroke-miterlimit:10"></path><path d="M512.6,278.91a15.14,15.14,0,0,0,3,3.18" style="fill:#b2b2b2;stroke:#263238;stroke-miterlimit:10"></path><path d="M508.27,272.18c0,.44,1.45,2.78,3.11,5.1" style="fill:#b2b2b2;stroke:#263238;stroke-miterlimit:10"></path></g></svg>