<svg id="Layer_1" height="512" viewBox="0 0 150 150" width="512" xmlns="http://www.w3.org/2000/svg" data-name="Layer 1"><path d="m105.572 140h-61.144a1 1 0 0 1 -1-1v-128a1 1 0 0 1 1-1h61.144a1 1 0 0 1 1 1v128a1 1 0 0 1 -1 1zm-60.144-2h59.144v-126h-59.144z"/><path d="m125.593 140h-101.186a1 1 0 0 1 0-2h101.186a1 1 0 1 1 0 2z"/><path d="m74.547 131.11a17.94 17.94 0 1 1 17.931-17.93 17.959 17.959 0 0 1 -17.931 17.93zm0-33.879a15.94 15.94 0 1 0 15.931 15.949 15.967 15.967 0 0 0 -15.931-15.949z"/><path d="m74.549 88.5a22.919 22.919 0 1 1 22.908-22.912 22.945 22.945 0 0 1 -22.908 22.912zm0-43.838a20.919 20.919 0 1 0 20.908 20.93 20.954 20.954 0 0 0 -20.908-20.934z"/><path d="m74.542 74.319a8.743 8.743 0 1 1 8.738-8.738 8.753 8.753 0 0 1 -8.738 8.738zm0-15.485a6.743 6.743 0 1 0 6.738 6.747 6.754 6.754 0 0 0 -6.738-6.747z"/><path d="m74.542 35.923a8.743 8.743 0 1 1 8.738-8.738 8.753 8.753 0 0 1 -8.738 8.738zm0-15.485a6.743 6.743 0 1 0 6.738 6.747 6.754 6.754 0 0 0 -6.738-6.747z"/><path d="m74.542 121.85a8.68 8.68 0 1 1 8.675-8.675 8.69 8.69 0 0 1 -8.675 8.675zm0-15.359a6.68 6.68 0 1 0 6.675 6.684 6.691 6.691 0 0 0 -6.675-6.684z"/><path d="m124.832 88.711a.989.989 0 0 1 -.662-.251 1 1 0 0 1 -.087-1.411c19.927-22.527.863-42.078.042-42.9a1 1 0 1 1 1.414-1.414c.215.215 21.2 21.722.042 45.639a1 1 0 0 1 -.749.337z"/><path d="m114.722 78.773a.987.987 0 0 1 -.662-.251 1 1 0 0 1 -.087-1.411c10.7-12.1.482-22.583.042-23.024a1 1 0 0 1 1.414-1.414c.121.121 11.976 12.271.042 25.763a1 1 0 0 1 -.749.337z"/><path d="m25.168 88.711a.994.994 0 0 1 -.749-.337c-21.158-23.917-.173-45.424.042-45.639a1 1 0 0 1 1.415 1.414c-.82.823-19.855 20.408.041 42.9a1 1 0 0 1 -.087 1.411.989.989 0 0 1 -.662.251z"/><path d="m35.278 78.773a1 1 0 0 1 -.749-.337c-11.935-13.492-.079-25.642.042-25.763a1 1 0 0 1 1.415 1.413c-.439.442-10.632 10.959.041 23.025a1 1 0 0 1 -.087 1.411.987.987 0 0 1 -.662.251z"/></svg>