<svg id="Capa_1" enable-background="new 0 0 512 512" height="512" viewBox="0 0 512 512" width="512" xmlns="http://www.w3.org/2000/svg"><g><path d="m399.964 445.141v-378.282c0-26.708-21.651-48.359-48.359-48.359h-194.045c-26.708 0-48.359 21.651-48.359 48.359v378.282c0 26.708 21.651 48.359 48.359 48.359h194.045c26.708 0 48.359-21.651 48.359-48.359z" fill="#9c9c9c"/><circle cx="256" cy="345.062" fill="#838383" r="92.19"/><path d="m354.44 18.5h-31.181c26.708 0 48.359 21.651 48.359 48.359v378.282c0 26.708-21.651 48.359-48.359 48.359h31.181c26.708 0 48.359-21.651 48.359-48.359v-378.282c0-26.708-21.651-48.359-48.359-48.359z" fill="#838383"/><ellipse cx="254.583" cy="345.062" fill="#5a5a5a" rx="62.687" ry="64.069"/><ellipse cx="254.583" cy="139.067" fill="#5a5a5a" rx="61.484" ry="64.217"/><circle cx="256" cy="345.062" fill="#444" r="19.947"/><circle cx="256" cy="139.067" fill="#444" r="21.44"/><g><path d="m428.754 394.718c-1.742 0-3.492-.604-4.911-1.834-3.129-2.714-3.466-7.451-.752-10.58 8.983-10.357 13.931-23.584 13.931-37.242 0-13.657-4.947-26.884-13.931-37.241-2.714-3.129-2.377-7.866.752-10.58 3.129-2.711 7.866-2.377 10.58.752 11.349 13.085 17.599 29.802 17.599 47.069 0 17.269-6.25 33.984-17.599 47.07-1.484 1.71-3.57 2.586-5.669 2.586z" fill="#f07281"/></g><g><path d="m474.085 433.979c-1.742 0-3.492-.604-4.911-1.834-3.129-2.714-3.466-7.451-.752-10.58 18.429-21.25 28.578-48.419 28.578-76.503s-10.149-55.253-28.578-76.502c-2.714-3.13-2.377-7.866.752-10.58 3.129-2.711 7.866-2.377 10.58.752 20.794 23.976 32.246 54.635 32.246 86.33s-11.452 62.354-32.246 86.331c-1.483 1.71-3.57 2.586-5.669 2.586z" fill="#f8a5af"/></g><g><path d="m451.406 414.337c-1.742 0-3.491-.604-4.911-1.834-3.129-2.714-3.466-7.45-.752-10.58 13.715-15.813 21.268-36.008 21.268-56.861s-7.553-41.047-21.268-56.86c-2.714-3.13-2.377-7.866.752-10.58 3.129-2.712 7.866-2.377 10.58.752 16.08 18.542 24.936 42.226 24.936 66.688 0 24.464-8.855 48.147-24.936 66.689-1.483 1.71-3.57 2.586-5.669 2.586z" fill="#f58a97"/></g><g><path d="m83.246 394.718c-2.099 0-4.186-.876-5.669-2.586-11.349-13.086-17.599-29.802-17.599-47.07s6.25-33.984 17.599-47.069c2.715-3.129 7.453-3.463 10.58-.752 3.129 2.714 3.466 7.451.752 10.58-8.983 10.357-13.931 23.584-13.931 37.241 0 13.658 4.947 26.885 13.931 37.242 2.714 3.129 2.377 7.866-.752 10.58-1.419 1.23-3.169 1.834-4.911 1.834z" fill="#f07281"/></g><g><path d="m37.915 433.979c-2.099 0-4.186-.876-5.669-2.586-20.794-23.977-32.246-54.637-32.246-86.331s11.452-62.354 32.246-86.33c2.715-3.129 7.453-3.463 10.58-.752 3.129 2.714 3.466 7.45.752 10.58-18.429 21.249-28.578 48.418-28.578 76.502s10.149 55.254 28.578 76.503c2.714 3.129 2.377 7.866-.752 10.58-1.419 1.23-3.169 1.834-4.911 1.834z" fill="#f8a5af"/></g><g><path d="m60.594 414.337c-2.099 0-4.186-.876-5.669-2.586-16.08-18.542-24.936-42.226-24.936-66.689s8.855-48.146 24.936-66.688c2.716-3.129 7.45-3.464 10.58-.752 3.129 2.714 3.466 7.45.752 10.58-13.715 15.813-21.268 36.007-21.268 56.86s7.553 41.048 21.268 56.861c2.714 3.13 2.377 7.866-.752 10.58-1.419 1.23-3.169 1.834-4.911 1.834z" fill="#f58a97"/></g><g><path d="m428.976 179.93c-1.902 0-3.806-.719-5.267-2.16-2.949-2.908-2.981-7.657-.073-10.606 7.757-7.864 12.028-17.843 12.028-28.097 0-10.253-4.271-20.231-12.028-28.097-2.909-2.95-2.876-7.698.073-10.606 2.95-2.909 7.697-2.876 10.606.073 10.543 10.69 16.349 24.41 16.349 38.63 0 14.222-5.806 27.94-16.349 38.63-1.467 1.487-3.403 2.233-5.339 2.233z" fill="#f07281"/></g><g><path d="m469.773 211.003c-1.902 0-3.805-.719-5.267-2.16-2.949-2.908-2.981-7.657-.073-10.606 16.258-16.484 25.211-37.498 25.211-59.17 0-21.671-8.953-42.685-25.211-59.169-2.908-2.949-2.876-7.698.073-10.606 2.948-2.909 7.696-2.878 10.606.073 19.044 19.31 29.531 44.063 29.531 69.702s-10.487 50.394-29.531 69.703c-1.466 1.487-3.402 2.233-5.339 2.233z" fill="#f8a5af"/></g><g><path d="m449.363 195.457c-1.902 0-3.805-.719-5.267-2.16-2.949-2.908-2.981-7.657-.073-10.606 12.015-12.182 18.631-27.675 18.631-43.624s-6.616-31.442-18.631-43.624c-2.908-2.949-2.876-7.698.073-10.606 2.947-2.91 7.696-2.877 10.606.073 14.801 15.007 22.951 34.24 22.951 54.157s-8.15 39.15-22.951 54.157c-1.467 1.487-3.402 2.233-5.339 2.233z" fill="#f58a97"/></g><g><path d="m83.225 179.93c-1.937 0-3.872-.745-5.34-2.233-10.543-10.688-16.349-24.407-16.349-38.63 0-14.222 5.806-27.94 16.349-38.63 2.909-2.949 7.658-2.982 10.606-.073 2.949 2.908 2.981 7.657.073 10.606-7.757 7.864-12.028 17.843-12.028 28.097 0 10.255 4.271 20.232 12.028 28.097 2.908 2.949 2.876 7.697-.073 10.606-1.461 1.441-3.364 2.16-5.266 2.16z" fill="#f07281"/></g><g><path d="m42.427 211.003c-1.937 0-3.872-.745-5.34-2.233-19.044-19.31-29.531-44.064-29.531-69.703s10.487-50.393 29.531-69.702c2.907-2.949 7.656-2.982 10.606-.073 2.949 2.908 2.981 7.657.073 10.606-16.258 16.484-25.211 37.498-25.211 59.169 0 21.672 8.953 42.686 25.211 59.17 2.908 2.949 2.876 7.698-.073 10.606-1.461 1.441-3.364 2.16-5.266 2.16z" fill="#f8a5af"/></g><g><path d="m62.837 195.457c-1.937 0-3.872-.745-5.34-2.233-14.801-15.007-22.951-34.24-22.951-54.157s8.15-39.15 22.951-54.157c2.909-2.948 7.656-2.983 10.606-.073 2.949 2.908 2.981 7.657.073 10.606-12.015 12.182-18.631 27.675-18.631 43.624s6.616 31.442 18.631 43.624c2.908 2.949 2.876 7.698-.073 10.606-1.46 1.441-3.364 2.16-5.266 2.16z" fill="#f58a97"/></g><path d="m256 74.748c-4.368 0-8.632.44-12.756 1.27 29.411 5.918 51.563 31.895 51.563 63.049s-22.152 57.13-51.563 63.049c4.124.83 8.388 1.27 12.756 1.27 35.522 0 64.319-28.797 64.319-64.319 0-35.523-28.797-64.319-64.319-64.319z" fill="#444"/><g><path d="m256 210.886c-39.602 0-71.819-32.218-71.819-71.819s32.218-71.818 71.819-71.818 71.819 32.218 71.819 71.818c0 39.601-32.217 71.819-71.819 71.819zm0-128.638c-31.33 0-56.819 25.488-56.819 56.818s25.489 56.82 56.819 56.82 56.819-25.489 56.819-56.819-25.489-56.819-56.819-56.819z" fill="#bfbfbf"/></g><g><path d="m256 444.752c-54.97 0-99.69-44.721-99.69-99.69s44.721-99.69 99.69-99.69 99.69 44.721 99.69 99.69-44.72 99.69-99.69 99.69zm0-184.381c-46.698 0-84.69 37.992-84.69 84.69s37.992 84.69 84.69 84.69 84.69-37.992 84.69-84.69-37.992-84.69-84.69-84.69z" fill="#bfbfbf"/></g><path d="m256 280.958c-4.367 0-8.632.442-12.756 1.278 29.257 5.931 51.349 31.845 51.349 62.826s-22.092 56.896-51.349 62.826c4.124.836 8.389 1.278 12.756 1.278 35.348 0 64.104-28.756 64.104-64.104s-28.756-64.104-64.104-64.104z" fill="#444"/></g></svg>