<?xml version="1.0"?>
<svg xmlns="http://www.w3.org/2000/svg" viewBox="0 0 64 64" width="512" height="512"><g id="Solid"><path d="M43,38H21a1,1,0,0,0-1,1v8a1,1,0,0,0,1,1H43a1,1,0,0,0,1-1V39A1,1,0,0,0,43,38ZM25,45a2,2,0,1,1,2-2A2,2,0,0,1,25,45Zm16,0H29V41H41Z"/><path d="M43,50H21a1,1,0,0,0-1,1v8a1,1,0,0,0,1,1H43a1,1,0,0,0,1-1V51A1,1,0,0,0,43,50ZM25,57a2,2,0,1,1,2-2A2,2,0,0,1,25,57Zm16,0H29V53H41Z"/><path d="M61,18H47a1,1,0,0,0-1,1V59a1,1,0,0,0,1,1H61a1,1,0,0,0,1-1V19A1,1,0,0,0,61,18ZM54,56a5,5,0,1,1,5-5A5.006,5.006,0,0,1,54,56ZM50,39a4,4,0,1,1,4,4A4,4,0,0,1,50,39Zm4-7a5,5,0,1,1,5-5A5.006,5.006,0,0,1,54,32Z"/><circle cx="54" cy="27" r="3"/><circle cx="54" cy="51" r="3"/><circle cx="54" cy="39.001" r="2"/><path d="M17,18H3a1,1,0,0,0-1,1V59a1,1,0,0,0,1,1H17a1,1,0,0,0,1-1V19A1,1,0,0,0,17,18ZM10,56a5,5,0,1,1,5-5A5.006,5.006,0,0,1,10,56ZM6,39a4,4,0,1,1,4,4A4,4,0,0,1,6,39Zm4-7a5,5,0,1,1,5-5A5.006,5.006,0,0,1,10,32Z"/><circle cx="10" cy="27" r="3"/><circle cx="10" cy="51" r="3"/><circle cx="10" cy="39.001" r="2"/><path d="M17.646,4.237a1,1,0,0,0-.81-.223l-6,1A1,1,0,0,0,10,6v5a2,2,0,1,0,2,2V6.848l4-.667V10a2,2,0,1,0,2,2V5A1,1,0,0,0,17.646,4.237Z"/><path d="M58.97,4.758a1,1,0,0,0-1.212-.728l-4,1A1,1,0,0,0,53,6v5a2,2,0,1,0,2,2V6.781l3.242-.81A1,1,0,0,0,58.97,4.758Z"/><path d="M35.11,31.578a1.007,1.007,0,0,1-.351-.064,7.847,7.847,0,0,0-5.518,0,1,1,0,0,1-.7-1.873,9.86,9.86,0,0,1,6.924,0,1,1,0,0,1-.352,1.937Z"/><path d="M37.979,27.478a1,1,0,0,1-.459-.112,12,12,0,0,0-11.041,0,1,1,0,0,1-.92-1.776,14,14,0,0,1,12.881,0,1,1,0,0,1-.461,1.888Z"/><path d="M40.789,23.468a1,1,0,0,1-.518-.145,15.893,15.893,0,0,0-16.543,0,1,1,0,0,1-1.037-1.71,17.891,17.891,0,0,1,18.617,0,1,1,0,0,1-.519,1.855Z"/></g></svg>
